<svg width="345" height="482" viewBox="0 0 345 482" fill="none" xmlns="http://www.w3.org/2000/svg">
<rect width="345" height="482" rx="10" fill="white"/>
<path opacity="0.5" fill-rule="evenodd" clip-rule="evenodd" d="M26 378.348C26 378.348 61.9965 344.367 74.115 341.876C86.2335 339.385 104.789 375.42 124.596 374.701C144.403 373.981 160.167 360.921 173.5 358.403C186.833 355.885 200.801 377.862 223.193 383.038C245.584 388.214 260.98 335.176 271.307 330.83C281.635 326.483 321 341.876 321 341.876V455.873H26V378.348Z" fill="url(#paint0_linear_56_1872)" fill-opacity="0.5"/>
<g style="mix-blend-mode:multiply">
<path d="M26 377.876C26 377.876 61.9965 344.226 74.115 341.759C86.2335 339.293 104.789 374.977 124.596 374.264C144.403 373.551 160.167 360.619 173.5 358.125C186.833 355.632 200.801 377.395 223.193 382.521C245.584 387.647 260.98 335.124 271.307 330.82C281.635 326.516 321 341.759 321 341.759" stroke="#77CEDD" stroke-width="3" stroke-linecap="round"/>
</g>
<g style="mix-blend-mode:multiply">
<path d="M26 415.873C26 415.873 37.304 411.113 74.115 387.763C110.926 364.413 112.641 341.873 124.596 341.873C136.552 341.873 155.696 380.062 173.5 380.062C191.304 380.062 194.562 356.062 223.193 359.32C251.823 362.578 257.38 385 271.307 391.191C285.235 397.383 321 367.03 321 367.03" stroke="black" stroke-width="3" stroke-linecap="round"/>
</g>
<path fill-rule="evenodd" clip-rule="evenodd" d="M268.258 339.498C271.825 339.498 274.716 336.607 274.716 333.04C274.716 329.473 271.825 326.582 268.258 326.582C264.691 326.582 261.8 329.473 261.8 333.04C261.8 336.607 264.691 339.498 268.258 339.498Z" fill="white"/>
<path fill-rule="evenodd" clip-rule="evenodd" d="M268.258 337.346C270.636 337.346 272.564 335.418 272.564 333.04C272.564 330.662 270.636 328.735 268.258 328.735C265.88 328.735 263.953 330.662 263.953 333.04C263.953 335.418 265.88 337.346 268.258 337.346Z" fill="#33C1BD"/>
<g filter="url(#filter0_d_56_1872)">
<path fill-rule="evenodd" clip-rule="evenodd" d="M254 298.873C249.582 298.873 246 302.454 246 306.873V313.873C246 318.291 249.582 321.873 254 321.873H262.254L268 325.529L273.746 321.873H282C286.418 321.873 290 318.291 290 313.873V306.873C290 302.454 286.418 298.873 282 298.873H254Z" fill="white"/>
</g>
<path d="M257.876 314.873H256.053L256.065 313.707H257.876C258.403 313.707 258.844 313.591 259.2 313.361C259.559 313.13 259.829 312.8 260.009 312.371C260.192 311.941 260.284 311.429 260.284 310.835V310.373C260.284 309.912 260.231 309.503 260.126 309.148C260.024 308.792 259.872 308.494 259.669 308.251C259.469 308.009 259.223 307.826 258.93 307.701C258.641 307.576 258.307 307.513 257.928 307.513H256.018V306.341H257.928C258.495 306.341 259.012 306.437 259.481 306.628C259.95 306.816 260.354 307.087 260.694 307.443C261.038 307.798 261.302 308.224 261.485 308.72C261.669 309.216 261.76 309.771 261.76 310.384V310.835C261.76 311.449 261.669 312.003 261.485 312.5C261.302 312.996 261.038 313.421 260.694 313.777C260.35 314.128 259.94 314.4 259.464 314.591C258.991 314.779 258.462 314.873 257.876 314.873ZM256.868 306.341V314.873H255.397V306.341H256.868ZM267.171 313.601V310.578C267.171 310.351 267.13 310.156 267.048 309.992C266.966 309.828 266.841 309.701 266.673 309.611C266.509 309.521 266.302 309.476 266.052 309.476C265.821 309.476 265.622 309.515 265.454 309.593C265.286 309.671 265.155 309.777 265.061 309.91C264.968 310.042 264.921 310.193 264.921 310.361H263.514C263.514 310.111 263.575 309.869 263.696 309.634C263.817 309.4 263.993 309.191 264.223 309.007C264.454 308.824 264.729 308.679 265.05 308.574C265.37 308.468 265.729 308.416 266.128 308.416C266.604 308.416 267.026 308.496 267.393 308.656C267.764 308.816 268.055 309.058 268.266 309.382C268.481 309.703 268.589 310.105 268.589 310.589V313.408C268.589 313.697 268.608 313.957 268.647 314.187C268.69 314.414 268.751 314.611 268.829 314.779V314.873H267.382C267.315 314.72 267.262 314.527 267.223 314.292C267.188 314.054 267.171 313.824 267.171 313.601ZM267.376 311.017L267.387 311.89H266.374C266.112 311.89 265.882 311.916 265.682 311.966C265.483 312.013 265.317 312.083 265.184 312.177C265.052 312.271 264.952 312.384 264.885 312.517C264.819 312.65 264.786 312.8 264.786 312.968C264.786 313.136 264.825 313.291 264.903 313.431C264.981 313.568 265.094 313.675 265.243 313.753C265.395 313.832 265.579 313.871 265.794 313.871C266.083 313.871 266.335 313.812 266.55 313.695C266.768 313.574 266.94 313.427 267.065 313.255C267.19 313.08 267.257 312.914 267.264 312.757L267.721 313.384C267.675 313.544 267.594 313.716 267.481 313.9C267.368 314.083 267.219 314.259 267.036 314.427C266.856 314.591 266.639 314.726 266.385 314.832C266.135 314.937 265.846 314.99 265.518 314.99C265.104 314.99 264.735 314.908 264.411 314.744C264.087 314.576 263.833 314.351 263.649 314.07C263.466 313.785 263.374 313.462 263.374 313.103C263.374 312.767 263.436 312.47 263.561 312.212C263.69 311.951 263.878 311.732 264.124 311.556C264.374 311.38 264.678 311.248 265.038 311.158C265.397 311.064 265.807 311.017 266.268 311.017H267.376ZM273.471 308.533V309.564H269.897V308.533H273.471ZM270.928 306.98H272.341V313.121C272.341 313.316 272.368 313.466 272.423 313.572C272.481 313.673 272.561 313.742 272.663 313.777C272.764 313.812 272.884 313.83 273.02 313.83C273.118 313.83 273.212 313.824 273.302 313.812C273.391 313.8 273.464 313.789 273.518 313.777L273.524 314.855C273.407 314.89 273.27 314.921 273.114 314.949C272.962 314.976 272.786 314.99 272.587 314.99C272.262 314.99 271.975 314.933 271.725 314.82C271.475 314.703 271.28 314.513 271.139 314.251C270.999 313.99 270.928 313.642 270.928 313.208V306.98ZM278.635 313.601V310.578C278.635 310.351 278.594 310.156 278.512 309.992C278.43 309.828 278.305 309.701 278.137 309.611C277.973 309.521 277.766 309.476 277.516 309.476C277.286 309.476 277.087 309.515 276.919 309.593C276.751 309.671 276.62 309.777 276.526 309.91C276.432 310.042 276.385 310.193 276.385 310.361H274.979C274.979 310.111 275.04 309.869 275.161 309.634C275.282 309.4 275.458 309.191 275.688 309.007C275.919 308.824 276.194 308.679 276.514 308.574C276.835 308.468 277.194 308.416 277.593 308.416C278.069 308.416 278.491 308.496 278.858 308.656C279.229 308.816 279.52 309.058 279.731 309.382C279.946 309.703 280.053 310.105 280.053 310.589V313.408C280.053 313.697 280.073 313.957 280.112 314.187C280.155 314.414 280.216 314.611 280.294 314.779V314.873H278.846C278.78 314.72 278.727 314.527 278.688 314.292C278.653 314.054 278.635 313.824 278.635 313.601ZM278.841 311.017L278.852 311.89H277.839C277.577 311.89 277.346 311.916 277.147 311.966C276.948 312.013 276.782 312.083 276.649 312.177C276.516 312.271 276.417 312.384 276.35 312.517C276.284 312.65 276.251 312.8 276.251 312.968C276.251 313.136 276.29 313.291 276.368 313.431C276.446 313.568 276.559 313.675 276.708 313.753C276.86 313.832 277.044 313.871 277.259 313.871C277.548 313.871 277.8 313.812 278.014 313.695C278.233 313.574 278.405 313.427 278.53 313.255C278.655 313.08 278.721 312.914 278.729 312.757L279.186 313.384C279.139 313.544 279.059 313.716 278.946 313.9C278.833 314.083 278.684 314.259 278.501 314.427C278.321 314.591 278.104 314.726 277.85 314.832C277.6 314.937 277.311 314.99 276.983 314.99C276.569 314.99 276.2 314.908 275.876 314.744C275.552 314.576 275.298 314.351 275.114 314.07C274.93 313.785 274.839 313.462 274.839 313.103C274.839 312.767 274.901 312.47 275.026 312.212C275.155 311.951 275.343 311.732 275.589 311.556C275.839 311.38 276.143 311.248 276.503 311.158C276.862 311.064 277.272 311.017 277.733 311.017H278.841Z" fill="#414D55"/>
<path d="M25 267C25 258.716 31.7157 252 40 252H57.2909V445.745H40C31.7157 445.745 25 439.03 25 430.745V267Z" fill="url(#paint1_linear_56_1872)"/>
<path d="M321 267C321 258.716 314.284 252 306 252H288.709V445.745H306C314.284 445.745 321 439.03 321 430.745V267Z" fill="url(#paint2_linear_56_1872)"/>
<path d="M26.8112 25.62H29.4887L33.9662 37.95L38.4325 25.62H41.1212L35.035 42H32.8862L26.8112 25.62ZM25.4612 25.62H28.0825L28.555 36.9487V42H25.4612V25.62ZM39.8387 25.62H42.4712V42H39.3775V36.9487L39.8387 25.62ZM48.9625 40.65L52.225 29.8275H55.4087L50.5262 43.845C50.4137 44.145 50.2675 44.4713 50.0875 44.8238C49.915 45.1763 49.6825 45.51 49.39 45.825C49.0975 46.1475 48.73 46.41 48.2875 46.6125C47.8525 46.815 47.3237 46.9163 46.7012 46.9163C46.4312 46.9163 46.1912 46.8975 45.9812 46.86C45.7712 46.8225 45.55 46.7738 45.3175 46.7138V44.4863C45.3925 44.4938 45.4787 44.4975 45.5762 44.4975C45.6812 44.505 45.7712 44.5088 45.8462 44.5088C46.2812 44.5088 46.6412 44.4563 46.9262 44.3513C47.2112 44.2538 47.44 44.0925 47.6125 43.8675C47.7925 43.65 47.9425 43.365 48.0625 43.0125L48.9625 40.65ZM47.3537 29.8275L50.11 38.7937L50.5937 41.9325L48.5462 42.3038L44.1475 29.8275H47.3537ZM69.1112 36.0262H64.8925V33.5962H69.1112C69.8012 33.5962 70.36 33.4837 70.7875 33.2587C71.2225 33.0262 71.5412 32.7112 71.7437 32.3137C71.9462 31.9087 72.0475 31.4475 72.0475 30.93C72.0475 30.4275 71.9462 29.9587 71.7437 29.5237C71.5412 29.0887 71.2225 28.7362 70.7875 28.4662C70.36 28.1962 69.8012 28.0612 69.1112 28.0612H65.905V42H62.8112V25.62H69.1112C70.3862 25.62 71.4737 25.8487 72.3737 26.3062C73.2812 26.7562 73.9712 27.3825 74.4437 28.185C74.9237 28.98 75.1637 29.8875 75.1637 30.9075C75.1637 31.965 74.9237 32.8762 74.4437 33.6412C73.9712 34.4062 73.2812 34.995 72.3737 35.4075C71.4737 35.82 70.3862 36.0262 69.1112 36.0262ZM82.6787 42.225C81.7562 42.225 80.9275 42.075 80.1925 41.775C79.4575 41.475 78.8312 41.0587 78.3137 40.5262C77.8037 39.9862 77.41 39.36 77.1325 38.6475C76.8625 37.9275 76.7275 37.155 76.7275 36.33V35.88C76.7275 34.9425 76.8625 34.0912 77.1325 33.3262C77.4025 32.5537 77.785 31.89 78.28 31.335C78.775 30.78 79.3675 30.3525 80.0575 30.0525C80.7475 29.7525 81.5087 29.6025 82.3412 29.6025C83.2037 29.6025 83.965 29.7487 84.625 30.0412C85.285 30.3262 85.8362 30.7312 86.2787 31.2562C86.7212 31.7812 87.055 32.4112 87.28 33.1462C87.505 33.8737 87.6175 34.68 87.6175 35.565V36.8137H78.0775V34.7662H84.6925V34.5412C84.6775 34.0687 84.5875 33.6375 84.4225 33.2475C84.2575 32.85 84.0025 32.535 83.6575 32.3025C83.3125 32.0625 82.8662 31.9425 82.3187 31.9425C81.8762 31.9425 81.49 32.04 81.16 32.235C80.8375 32.4225 80.5675 32.6925 80.35 33.045C80.14 33.39 79.9825 33.8025 79.8775 34.2825C79.7725 34.7625 79.72 35.295 79.72 35.88V36.33C79.72 36.84 79.7875 37.3125 79.9225 37.7475C80.065 38.1825 80.2712 38.5612 80.5412 38.8837C80.8187 39.1987 81.1487 39.4462 81.5312 39.6262C81.9212 39.7987 82.3637 39.885 82.8587 39.885C83.4812 39.885 84.0437 39.765 84.5462 39.525C85.0562 39.2775 85.4987 38.9137 85.8737 38.4337L87.37 39.9862C87.115 40.3612 86.77 40.7212 86.335 41.0662C85.9075 41.4112 85.39 41.6925 84.7825 41.91C84.175 42.12 83.4737 42.225 82.6787 42.225ZM92.5787 32.3137V42H89.6087V29.8275H92.4212L92.5787 32.3137ZM96.28 29.7487L96.235 32.5162C96.07 32.4862 95.8825 32.4637 95.6725 32.4487C95.47 32.4337 95.2787 32.4262 95.0987 32.4262C94.6412 32.4262 94.24 32.49 93.895 32.6175C93.55 32.7375 93.2612 32.9137 93.0287 33.1462C92.8037 33.3787 92.6312 33.6637 92.5112 34.0012C92.3912 34.3312 92.3237 34.7062 92.3087 35.1262L91.6675 35.0475C91.6675 34.275 91.7462 33.5587 91.9037 32.8987C92.0612 32.2387 92.29 31.6612 92.59 31.1662C92.89 30.6712 93.265 30.2887 93.715 30.0187C94.1725 29.7412 94.6975 29.6025 95.29 29.6025C95.455 29.6025 95.6312 29.6175 95.8187 29.6475C96.0137 29.67 96.1675 29.7037 96.28 29.7487ZM102.006 42H99.0137V28.7025C99.0137 27.7875 99.19 27.0187 99.5425 26.3962C99.895 25.7662 100.397 25.29 101.05 24.9675C101.702 24.645 102.471 24.4837 103.356 24.4837C103.649 24.4837 103.926 24.5025 104.189 24.54C104.459 24.5775 104.725 24.63 104.987 24.6975L104.931 26.9587C104.789 26.9212 104.631 26.895 104.459 26.88C104.294 26.865 104.11 26.8575 103.907 26.8575C103.502 26.8575 103.157 26.9287 102.872 27.0712C102.587 27.2137 102.37 27.4237 102.22 27.7012C102.077 27.9712 102.006 28.305 102.006 28.7025V42ZM104.47 29.8275V31.965H97.18V29.8275H104.47ZM105.775 36.0375V35.8012C105.775 34.9087 105.902 34.0875 106.157 33.3375C106.412 32.58 106.784 31.9237 107.271 31.3687C107.759 30.8137 108.355 30.3825 109.06 30.075C109.765 29.76 110.567 29.6025 111.467 29.6025C112.382 29.6025 113.192 29.76 113.897 30.075C114.61 30.3825 115.21 30.8137 115.697 31.3687C116.185 31.9237 116.556 32.58 116.811 33.3375C117.066 34.0875 117.194 34.9087 117.194 35.8012V36.0375C117.194 36.9225 117.066 37.7437 116.811 38.5012C116.556 39.2512 116.185 39.9075 115.697 40.47C115.21 41.025 114.614 41.4562 113.909 41.7637C113.204 42.0713 112.397 42.225 111.49 42.225C110.59 42.225 109.784 42.0713 109.071 41.7637C108.359 41.4562 107.759 41.025 107.271 40.47C106.784 39.9075 106.412 39.2512 106.157 38.5012C105.902 37.7437 105.775 36.9225 105.775 36.0375ZM108.745 35.8012V36.0375C108.745 36.57 108.797 37.0687 108.902 37.5337C109.007 37.9987 109.169 38.4075 109.386 38.76C109.604 39.1125 109.885 39.39 110.23 39.5925C110.582 39.7875 111.002 39.885 111.49 39.885C111.97 39.885 112.382 39.7875 112.727 39.5925C113.072 39.39 113.354 39.1125 113.571 38.76C113.796 38.4075 113.961 37.9987 114.066 37.5337C114.171 37.0687 114.224 36.57 114.224 36.0375V35.8012C114.224 35.2762 114.171 34.785 114.066 34.3275C113.961 33.8625 113.796 33.4537 113.571 33.1012C113.354 32.7412 113.069 32.46 112.716 32.2575C112.371 32.0475 111.955 31.9425 111.467 31.9425C110.987 31.9425 110.575 32.0475 110.23 32.2575C109.885 32.46 109.604 32.7412 109.386 33.1012C109.169 33.4537 109.007 33.8625 108.902 34.3275C108.797 34.785 108.745 35.2762 108.745 35.8012ZM122.324 32.3137V42H119.354V29.8275H122.166L122.324 32.3137ZM126.025 29.7487L125.98 32.5162C125.815 32.4862 125.627 32.4637 125.417 32.4487C125.215 32.4337 125.024 32.4262 124.844 32.4262C124.386 32.4262 123.985 32.49 123.64 32.6175C123.295 32.7375 123.006 32.9137 122.774 33.1462C122.549 33.3787 122.376 33.6637 122.256 34.0012C122.136 34.3312 122.069 34.7062 122.054 35.1262L121.412 35.0475C121.412 34.275 121.491 33.5587 121.649 32.8987C121.806 32.2387 122.035 31.6612 122.335 31.1662C122.635 30.6712 123.01 30.2887 123.46 30.0187C123.917 29.7412 124.442 29.6025 125.035 29.6025C125.2 29.6025 125.376 29.6175 125.564 29.6475C125.759 29.67 125.912 29.7037 126.025 29.7487ZM130.615 32.325V42H127.645V29.8275H130.446L130.615 32.325ZM130.176 35.475H129.265C129.265 34.6275 129.366 33.8475 129.569 33.135C129.779 32.4225 130.086 31.8037 130.491 31.2787C130.896 30.7462 131.395 30.3337 131.987 30.0412C132.587 29.7487 133.281 29.6025 134.069 29.6025C134.616 29.6025 135.119 29.685 135.576 29.85C136.034 30.0075 136.427 30.2587 136.757 30.6037C137.095 30.9412 137.354 31.3837 137.534 31.9312C137.714 32.4712 137.804 33.12 137.804 33.8775V42H134.834V34.1812C134.834 33.6112 134.751 33.165 134.586 32.8425C134.429 32.52 134.2 32.295 133.9 32.1675C133.6 32.0325 133.24 31.965 132.82 31.965C132.355 31.965 131.954 32.0587 131.616 32.2462C131.286 32.4262 131.012 32.6775 130.795 33C130.585 33.3225 130.427 33.6937 130.322 34.1137C130.225 34.5337 130.176 34.9875 130.176 35.475ZM137.579 34.9237L136.352 35.1487C136.36 34.3837 136.465 33.6675 136.667 33C136.87 32.325 137.166 31.7362 137.556 31.2337C137.954 30.7237 138.445 30.3262 139.03 30.0412C139.622 29.7487 140.305 29.6025 141.077 29.6025C141.677 29.6025 142.217 29.6887 142.697 29.8612C143.185 30.0262 143.601 30.2925 143.946 30.66C144.291 31.02 144.554 31.4887 144.734 32.0662C144.921 32.6437 145.015 33.3487 145.015 34.1812V42H142.022V34.17C142.022 33.5775 141.94 33.1237 141.775 32.8087C141.617 32.4937 141.389 32.2762 141.089 32.1562C140.789 32.0287 140.436 31.965 140.031 31.965C139.619 31.965 139.259 32.0437 138.951 32.2012C138.651 32.3512 138.396 32.5612 138.186 32.8312C137.984 33.1012 137.83 33.4162 137.725 33.7762C137.627 34.1287 137.579 34.5112 137.579 34.9237ZM154.386 39.4125V33.7987C154.386 33.3862 154.315 33.03 154.172 32.73C154.03 32.43 153.812 32.1975 153.52 32.0325C153.227 31.8675 152.856 31.785 152.406 31.785C152.009 31.785 151.66 31.8525 151.36 31.9875C151.067 32.1225 150.842 32.3137 150.685 32.5612C150.527 32.8012 150.449 33.0787 150.449 33.3937H147.467C147.467 32.8912 147.587 32.415 147.827 31.965C148.067 31.5075 148.409 31.1025 148.851 30.75C149.301 30.39 149.837 30.1087 150.46 29.9062C151.09 29.7037 151.795 29.6025 152.575 29.6025C153.497 29.6025 154.319 29.76 155.039 30.075C155.766 30.3825 156.336 30.8475 156.749 31.47C157.169 32.0925 157.379 32.8762 157.379 33.8212V39.1312C157.379 39.7387 157.416 40.26 157.491 40.695C157.574 41.1225 157.694 41.4937 157.851 41.8087V42H154.825C154.682 41.6925 154.574 41.3025 154.499 40.83C154.424 40.35 154.386 39.8775 154.386 39.4125ZM154.802 34.5862L154.825 36.3525H152.946C152.481 36.3525 152.072 36.4012 151.72 36.4987C151.367 36.5887 151.079 36.7237 150.854 36.9037C150.629 37.0762 150.46 37.2862 150.347 37.5337C150.235 37.7737 150.179 38.0475 150.179 38.355C150.179 38.655 150.246 38.925 150.381 39.165C150.524 39.405 150.726 39.5962 150.989 39.7387C151.259 39.8737 151.574 39.9412 151.934 39.9412C152.459 39.9412 152.916 39.8362 153.306 39.6262C153.696 39.4087 154 39.1462 154.217 38.8387C154.435 38.5312 154.551 38.2387 154.566 37.9612L155.421 39.2437C155.316 39.5512 155.159 39.8775 154.949 40.2225C154.739 40.5675 154.469 40.89 154.139 41.19C153.809 41.49 153.411 41.7375 152.946 41.9325C152.481 42.1275 151.941 42.225 151.326 42.225C150.539 42.225 149.834 42.0675 149.211 41.7525C148.589 41.4375 148.097 41.0062 147.737 40.4587C147.377 39.9112 147.197 39.2887 147.197 38.5912C147.197 37.9462 147.317 37.3762 147.557 36.8812C147.797 36.3862 148.154 35.97 148.626 35.6325C149.099 35.2875 149.684 35.0287 150.381 34.8562C151.086 34.6762 151.892 34.5862 152.8 34.5862H154.802ZM162.97 32.4262V42H160V29.8275H162.79L162.97 32.4262ZM162.497 35.475H161.62C161.627 34.59 161.747 33.7875 161.98 33.0675C162.212 32.3475 162.539 31.7287 162.959 31.2112C163.386 30.6937 163.892 30.2962 164.477 30.0187C165.062 29.7412 165.715 29.6025 166.435 29.6025C167.02 29.6025 167.549 29.685 168.021 29.85C168.494 30.015 168.899 30.2775 169.236 30.6375C169.581 30.9975 169.844 31.47 170.024 32.055C170.211 32.6325 170.305 33.345 170.305 34.1925V42H167.312V34.17C167.312 33.615 167.23 33.1762 167.065 32.8537C166.907 32.5312 166.675 32.3025 166.367 32.1675C166.067 32.0325 165.696 31.965 165.254 31.965C164.796 31.965 164.395 32.0587 164.05 32.2462C163.712 32.4262 163.427 32.6775 163.195 33C162.97 33.3225 162.797 33.6937 162.677 34.1137C162.557 34.5337 162.497 34.9875 162.497 35.475ZM177.921 39.885C178.341 39.885 178.716 39.8025 179.046 39.6375C179.376 39.4725 179.639 39.24 179.834 38.94C180.036 38.64 180.145 38.2912 180.16 37.8937H182.961C182.946 38.7187 182.714 39.4575 182.264 40.11C181.814 40.7625 181.214 41.28 180.464 41.6625C179.721 42.0375 178.889 42.225 177.966 42.225C177.029 42.225 176.211 42.0675 175.514 41.7525C174.816 41.4375 174.235 40.9987 173.77 40.4362C173.312 39.8737 172.967 39.2212 172.735 38.4787C172.51 37.7362 172.397 36.9412 172.397 36.0937V35.7337C172.397 34.8862 172.51 34.0912 172.735 33.3487C172.967 32.6062 173.312 31.9537 173.77 31.3912C174.235 30.8287 174.816 30.39 175.514 30.075C176.211 29.76 177.025 29.6025 177.955 29.6025C178.937 29.6025 179.8 29.7937 180.542 30.1762C181.292 30.5587 181.877 31.0987 182.297 31.7962C182.725 32.4937 182.946 33.315 182.961 34.26H180.16C180.145 33.825 180.047 33.435 179.867 33.09C179.687 32.745 179.432 32.4675 179.102 32.2575C178.772 32.0475 178.371 31.9425 177.899 31.9425C177.396 31.9425 176.976 32.0475 176.639 32.2575C176.309 32.4675 176.05 32.7562 175.862 33.1237C175.682 33.4837 175.555 33.8887 175.48 34.3387C175.412 34.7812 175.379 35.2462 175.379 35.7337V36.0937C175.379 36.5887 175.412 37.0612 175.48 37.5112C175.555 37.9612 175.682 38.3662 175.862 38.7262C176.05 39.0787 176.309 39.36 176.639 39.57C176.976 39.78 177.404 39.885 177.921 39.885ZM190.409 42.225C189.486 42.225 188.657 42.075 187.922 41.775C187.187 41.475 186.561 41.0587 186.044 40.5262C185.534 39.9862 185.14 39.36 184.862 38.6475C184.592 37.9275 184.457 37.155 184.457 36.33V35.88C184.457 34.9425 184.592 34.0912 184.862 33.3262C185.132 32.5537 185.515 31.89 186.01 31.335C186.505 30.78 187.097 30.3525 187.787 30.0525C188.477 29.7525 189.239 29.6025 190.071 29.6025C190.934 29.6025 191.695 29.7487 192.355 30.0412C193.015 30.3262 193.566 30.7312 194.009 31.2562C194.451 31.7812 194.785 32.4112 195.01 33.1462C195.235 33.8737 195.347 34.68 195.347 35.565V36.8137H185.807V34.7662H192.422V34.5412C192.407 34.0687 192.317 33.6375 192.152 33.2475C191.987 32.85 191.732 32.535 191.387 32.3025C191.042 32.0625 190.596 31.9425 190.049 31.9425C189.606 31.9425 189.22 32.04 188.89 32.235C188.567 32.4225 188.297 32.6925 188.08 33.045C187.87 33.39 187.712 33.8025 187.607 34.2825C187.502 34.7625 187.45 35.295 187.45 35.88V36.33C187.45 36.84 187.517 37.3125 187.652 37.7475C187.795 38.1825 188.001 38.5612 188.271 38.8837C188.549 39.1987 188.879 39.4462 189.261 39.6262C189.651 39.7987 190.094 39.885 190.589 39.885C191.211 39.885 191.774 39.765 192.276 39.525C192.786 39.2775 193.229 38.9137 193.604 38.4337L195.1 39.9862C194.845 40.3612 194.5 40.7212 194.065 41.0662C193.637 41.4112 193.12 41.6925 192.512 41.91C191.905 42.12 191.204 42.225 190.409 42.225Z" fill="#05052C"/>
<path d="M30.3219 232.35V246H27.5188V232.35H30.3219ZM34.5219 232.35V234.553H23.3844V232.35H34.5219ZM33.8938 241.031V240.834C33.8938 240.091 34 239.406 34.2125 238.781C34.425 238.15 34.7344 237.603 35.1406 237.141C35.5469 236.678 36.0469 236.319 36.6406 236.062C37.2344 235.8 37.9156 235.669 38.6844 235.669C39.4531 235.669 40.1375 235.8 40.7375 236.062C41.3375 236.319 41.8406 236.678 42.2469 237.141C42.6594 237.603 42.9719 238.15 43.1844 238.781C43.3969 239.406 43.5031 240.091 43.5031 240.834V241.031C43.5031 241.769 43.3969 242.453 43.1844 243.084C42.9719 243.709 42.6594 244.256 42.2469 244.725C41.8406 245.187 41.3406 245.547 40.7469 245.803C40.1531 246.059 39.4719 246.188 38.7031 246.188C37.9344 246.188 37.25 246.059 36.65 245.803C36.0563 245.547 35.5531 245.187 35.1406 244.725C34.7344 244.256 34.425 243.709 34.2125 243.084C34 242.453 33.8938 241.769 33.8938 241.031ZM36.5938 240.834V241.031C36.5938 241.456 36.6313 241.853 36.7063 242.222C36.7813 242.591 36.9 242.916 37.0625 243.197C37.2313 243.472 37.45 243.687 37.7188 243.844C37.9875 244 38.3156 244.078 38.7031 244.078C39.0781 244.078 39.4 244 39.6688 243.844C39.9375 243.687 40.1531 243.472 40.3156 243.197C40.4781 242.916 40.5969 242.591 40.6719 242.222C40.7531 241.853 40.7938 241.456 40.7938 241.031V240.834C40.7938 240.422 40.7531 240.034 40.6719 239.672C40.5969 239.303 40.475 238.978 40.3063 238.697C40.1438 238.409 39.9281 238.184 39.6594 238.022C39.3906 237.859 39.0656 237.778 38.6844 237.778C38.3031 237.778 37.9781 237.859 37.7094 238.022C37.4469 238.184 37.2313 238.409 37.0625 238.697C36.9 238.978 36.7813 239.303 36.7063 239.672C36.6313 240.034 36.5938 240.422 36.5938 240.834ZM50.1313 235.856V237.769H44.225V235.856H50.1313ZM45.6875 233.353H48.3875V242.944C48.3875 243.237 48.425 243.462 48.5 243.619C48.5813 243.775 48.7 243.884 48.8563 243.947C49.0125 244.003 49.2094 244.031 49.4469 244.031C49.6156 244.031 49.7656 244.025 49.8969 244.012C50.0344 243.994 50.15 243.975 50.2438 243.956L50.2531 245.944C50.0219 246.019 49.7719 246.078 49.5031 246.122C49.2344 246.166 48.9375 246.188 48.6125 246.188C48.0188 246.188 47.5 246.091 47.0563 245.897C46.6188 245.697 46.2813 245.378 46.0438 244.941C45.8063 244.503 45.6875 243.928 45.6875 243.216V233.353ZM57.1438 243.712V239.194C57.1438 238.869 57.0906 238.591 56.9844 238.359C56.8781 238.122 56.7125 237.937 56.4875 237.806C56.2688 237.675 55.9844 237.609 55.6344 237.609C55.3344 237.609 55.075 237.662 54.8563 237.769C54.6375 237.869 54.4688 238.016 54.35 238.209C54.2313 238.397 54.1719 238.619 54.1719 238.875H51.4719C51.4719 238.444 51.5719 238.034 51.7719 237.647C51.9719 237.259 52.2625 236.919 52.6438 236.625C53.025 236.325 53.4781 236.091 54.0031 235.922C54.5344 235.753 55.1281 235.669 55.7844 235.669C56.5719 235.669 57.2719 235.8 57.8844 236.062C58.4969 236.325 58.9781 236.719 59.3281 237.244C59.6844 237.769 59.8625 238.425 59.8625 239.212V243.553C59.8625 244.109 59.8969 244.566 59.9656 244.922C60.0344 245.272 60.1344 245.578 60.2656 245.841V246H57.5375C57.4063 245.725 57.3063 245.381 57.2375 244.969C57.175 244.55 57.1438 244.131 57.1438 243.712ZM57.5 239.822L57.5188 241.35H56.0094C55.6531 241.35 55.3438 241.391 55.0813 241.472C54.8188 241.553 54.6031 241.669 54.4344 241.819C54.2656 241.962 54.1406 242.131 54.0594 242.325C53.9844 242.519 53.9469 242.731 53.9469 242.962C53.9469 243.194 54 243.403 54.1063 243.591C54.2125 243.772 54.3656 243.916 54.5656 244.022C54.7656 244.122 55 244.172 55.2688 244.172C55.675 244.172 56.0281 244.091 56.3281 243.928C56.6281 243.766 56.8594 243.566 57.0219 243.328C57.1906 243.091 57.2781 242.866 57.2844 242.653L57.9969 243.797C57.8969 244.053 57.7594 244.319 57.5844 244.594C57.4156 244.869 57.2 245.128 56.9375 245.372C56.675 245.609 56.3594 245.806 55.9906 245.962C55.6219 246.113 55.1844 246.188 54.6781 246.188C54.0344 246.188 53.45 246.059 52.925 245.803C52.4063 245.541 51.9938 245.181 51.6875 244.725C51.3875 244.262 51.2375 243.737 51.2375 243.15C51.2375 242.619 51.3375 242.147 51.5375 241.734C51.7375 241.322 52.0313 240.975 52.4188 240.694C52.8125 240.406 53.3031 240.191 53.8906 240.047C54.4781 239.897 55.1594 239.822 55.9344 239.822H57.5ZM64.7938 231.6V246H62.0844V231.6H64.7938ZM76.775 235.856V237.769H70.8688V235.856H76.775ZM72.3313 233.353H75.0313V242.944C75.0313 243.237 75.0688 243.462 75.1438 243.619C75.225 243.775 75.3438 243.884 75.5 243.947C75.6563 244.003 75.8531 244.031 76.0906 244.031C76.2594 244.031 76.4094 244.025 76.5406 244.012C76.6781 243.994 76.7938 243.975 76.8875 243.956L76.8969 245.944C76.6656 246.019 76.4156 246.078 76.1469 246.122C75.8781 246.166 75.5813 246.188 75.2563 246.188C74.6625 246.188 74.1438 246.091 73.7 245.897C73.2625 245.697 72.925 245.378 72.6875 244.941C72.45 244.503 72.3313 243.928 72.3313 243.216V233.353ZM81.1625 235.856V246H78.4531V235.856H81.1625ZM78.2844 233.212C78.2844 232.819 78.4219 232.494 78.6969 232.237C78.9719 231.981 79.3406 231.853 79.8031 231.853C80.2594 231.853 80.625 231.981 80.9 232.237C81.1813 232.494 81.3219 232.819 81.3219 233.212C81.3219 233.606 81.1813 233.931 80.9 234.187C80.625 234.444 80.2594 234.572 79.8031 234.572C79.3406 234.572 78.9719 234.444 78.6969 234.187C78.4219 233.931 78.2844 233.606 78.2844 233.212ZM87.5844 244.078C87.9156 244.078 88.2094 244.016 88.4656 243.891C88.7219 243.759 88.9219 243.578 89.0656 243.347C89.2156 243.109 89.2938 242.831 89.3 242.512H91.8406C91.8344 243.225 91.6438 243.859 91.2688 244.416C90.8938 244.966 90.3906 245.4 89.7594 245.719C89.1281 246.031 88.4219 246.188 87.6406 246.188C86.8531 246.188 86.1656 246.056 85.5781 245.794C84.9969 245.531 84.5125 245.169 84.125 244.706C83.7375 244.237 83.4469 243.694 83.2531 243.075C83.0594 242.45 82.9625 241.781 82.9625 241.069V240.797C82.9625 240.078 83.0594 239.409 83.2531 238.791C83.4469 238.166 83.7375 237.622 84.125 237.159C84.5125 236.691 84.9969 236.325 85.5781 236.062C86.1594 235.8 86.8406 235.669 87.6219 235.669C88.4531 235.669 89.1813 235.828 89.8063 236.147C90.4375 236.466 90.9313 236.922 91.2875 237.516C91.65 238.103 91.8344 238.8 91.8406 239.606H89.3C89.2938 239.269 89.2219 238.962 89.0844 238.687C88.9531 238.412 88.7594 238.194 88.5031 238.031C88.2531 237.862 87.9438 237.778 87.575 237.778C87.1813 237.778 86.8594 237.862 86.6094 238.031C86.3594 238.194 86.1656 238.419 86.0281 238.706C85.8906 238.987 85.7938 239.309 85.7375 239.672C85.6875 240.028 85.6625 240.403 85.6625 240.797V241.069C85.6625 241.462 85.6875 241.841 85.7375 242.203C85.7875 242.566 85.8813 242.887 86.0188 243.169C86.1625 243.45 86.3594 243.672 86.6094 243.834C86.8594 243.997 87.1844 244.078 87.5844 244.078ZM96.1063 231.591V246H93.4063V231.591H96.1063ZM102.5 235.856L98.0938 240.881L95.7313 243.272L94.7469 241.322L96.6219 238.941L99.2563 235.856H102.5ZM99.6969 246L96.6969 241.312L98.5625 239.681L102.809 246H99.6969ZM108.144 246.188C107.356 246.188 106.65 246.063 106.025 245.812C105.4 245.556 104.869 245.203 104.431 244.753C104 244.303 103.669 243.781 103.438 243.187C103.206 242.587 103.091 241.95 103.091 241.275V240.9C103.091 240.131 103.2 239.428 103.419 238.791C103.638 238.153 103.95 237.6 104.356 237.131C104.769 236.662 105.269 236.303 105.856 236.053C106.444 235.797 107.106 235.669 107.844 235.669C108.563 235.669 109.2 235.787 109.756 236.025C110.313 236.262 110.778 236.6 111.153 237.037C111.534 237.475 111.822 238 112.016 238.612C112.209 239.219 112.306 239.894 112.306 240.637V241.762H104.244V239.962H109.653V239.756C109.653 239.381 109.584 239.047 109.447 238.753C109.316 238.453 109.116 238.216 108.847 238.041C108.578 237.866 108.234 237.778 107.816 237.778C107.459 237.778 107.153 237.856 106.897 238.012C106.641 238.169 106.431 238.387 106.269 238.669C106.113 238.95 105.994 239.281 105.913 239.662C105.838 240.037 105.8 240.45 105.8 240.9V241.275C105.8 241.681 105.856 242.056 105.969 242.4C106.088 242.744 106.253 243.041 106.466 243.291C106.684 243.541 106.947 243.734 107.253 243.872C107.566 244.009 107.919 244.078 108.313 244.078C108.8 244.078 109.253 243.984 109.672 243.797C110.097 243.603 110.463 243.312 110.769 242.925L112.081 244.35C111.869 244.656 111.578 244.95 111.209 245.231C110.847 245.512 110.409 245.744 109.897 245.925C109.384 246.1 108.8 246.188 108.144 246.188ZM118.813 235.856V237.769H112.906V235.856H118.813ZM114.369 233.353H117.069V242.944C117.069 243.237 117.106 243.462 117.181 243.619C117.263 243.775 117.381 243.884 117.538 243.947C117.694 244.003 117.891 244.031 118.128 244.031C118.297 244.031 118.447 244.025 118.578 244.012C118.716 243.994 118.831 243.975 118.925 243.956L118.934 245.944C118.703 246.019 118.453 246.078 118.184 246.122C117.916 246.166 117.619 246.188 117.294 246.188C116.7 246.188 116.181 246.091 115.738 245.897C115.3 245.697 114.963 245.378 114.725 244.941C114.488 244.503 114.369 243.928 114.369 243.216V233.353ZM125.834 243.197C125.834 243.003 125.778 242.828 125.666 242.672C125.553 242.516 125.344 242.372 125.038 242.241C124.738 242.103 124.303 241.978 123.734 241.866C123.222 241.753 122.744 241.612 122.3 241.444C121.863 241.269 121.481 241.059 121.156 240.816C120.838 240.572 120.588 240.284 120.406 239.953C120.225 239.616 120.134 239.231 120.134 238.8C120.134 238.375 120.225 237.975 120.406 237.6C120.594 237.225 120.859 236.894 121.203 236.606C121.553 236.312 121.978 236.084 122.478 235.922C122.984 235.753 123.553 235.669 124.184 235.669C125.066 235.669 125.822 235.809 126.453 236.091C127.091 236.372 127.578 236.759 127.916 237.253C128.259 237.741 128.431 238.297 128.431 238.922H125.731C125.731 238.659 125.675 238.425 125.563 238.219C125.456 238.006 125.288 237.841 125.056 237.722C124.831 237.597 124.538 237.534 124.175 237.534C123.875 237.534 123.616 237.587 123.397 237.694C123.178 237.794 123.009 237.931 122.891 238.106C122.778 238.275 122.722 238.462 122.722 238.669C122.722 238.825 122.753 238.966 122.816 239.091C122.884 239.209 122.994 239.319 123.144 239.419C123.294 239.519 123.488 239.612 123.725 239.7C123.969 239.781 124.269 239.856 124.625 239.925C125.356 240.075 126.009 240.272 126.584 240.516C127.159 240.753 127.616 241.078 127.953 241.491C128.291 241.897 128.459 242.431 128.459 243.094C128.459 243.544 128.359 243.956 128.159 244.331C127.959 244.706 127.672 245.034 127.297 245.316C126.922 245.591 126.472 245.806 125.947 245.962C125.428 246.113 124.844 246.188 124.194 246.188C123.25 246.188 122.45 246.019 121.794 245.681C121.144 245.344 120.65 244.916 120.313 244.397C119.981 243.872 119.816 243.334 119.816 242.784H122.375C122.388 243.153 122.481 243.45 122.656 243.675C122.838 243.9 123.066 244.062 123.341 244.162C123.622 244.262 123.925 244.312 124.25 244.312C124.6 244.312 124.891 244.266 125.122 244.172C125.353 244.072 125.528 243.941 125.647 243.778C125.772 243.609 125.834 243.416 125.834 243.197ZM140.478 243.197C140.478 243.003 140.422 242.828 140.309 242.672C140.197 242.516 139.988 242.372 139.681 242.241C139.381 242.103 138.947 241.978 138.378 241.866C137.866 241.753 137.388 241.612 136.944 241.444C136.506 241.269 136.125 241.059 135.8 240.816C135.481 240.572 135.231 240.284 135.05 239.953C134.869 239.616 134.778 239.231 134.778 238.8C134.778 238.375 134.869 237.975 135.05 237.6C135.238 237.225 135.503 236.894 135.847 236.606C136.197 236.312 136.622 236.084 137.122 235.922C137.628 235.753 138.197 235.669 138.828 235.669C139.709 235.669 140.466 235.809 141.097 236.091C141.734 236.372 142.222 236.759 142.559 237.253C142.903 237.741 143.075 238.297 143.075 238.922H140.375C140.375 238.659 140.319 238.425 140.206 238.219C140.1 238.006 139.931 237.841 139.7 237.722C139.475 237.597 139.181 237.534 138.819 237.534C138.519 237.534 138.259 237.587 138.041 237.694C137.822 237.794 137.653 237.931 137.534 238.106C137.422 238.275 137.366 238.462 137.366 238.669C137.366 238.825 137.397 238.966 137.459 239.091C137.528 239.209 137.638 239.319 137.788 239.419C137.938 239.519 138.131 239.612 138.369 239.7C138.613 239.781 138.913 239.856 139.269 239.925C140 240.075 140.653 240.272 141.228 240.516C141.803 240.753 142.259 241.078 142.597 241.491C142.934 241.897 143.103 242.431 143.103 243.094C143.103 243.544 143.003 243.956 142.803 244.331C142.603 244.706 142.316 245.034 141.941 245.316C141.566 245.591 141.116 245.806 140.591 245.962C140.072 246.113 139.488 246.188 138.838 246.188C137.894 246.188 137.094 246.019 136.438 245.681C135.788 245.344 135.294 244.916 134.956 244.397C134.625 243.872 134.459 243.334 134.459 242.784H137.019C137.031 243.153 137.125 243.45 137.3 243.675C137.481 243.9 137.709 244.062 137.984 244.162C138.266 244.262 138.569 244.312 138.894 244.312C139.244 244.312 139.534 244.266 139.766 244.172C139.997 244.072 140.172 243.941 140.291 243.778C140.416 243.609 140.478 243.416 140.478 243.197ZM144.425 241.031V240.834C144.425 240.091 144.531 239.406 144.744 238.781C144.956 238.15 145.266 237.603 145.672 237.141C146.078 236.678 146.578 236.319 147.172 236.062C147.766 235.8 148.447 235.669 149.216 235.669C149.984 235.669 150.669 235.8 151.269 236.062C151.869 236.319 152.372 236.678 152.778 237.141C153.191 237.603 153.503 238.15 153.716 238.781C153.928 239.406 154.034 240.091 154.034 240.834V241.031C154.034 241.769 153.928 242.453 153.716 243.084C153.503 243.709 153.191 244.256 152.778 244.725C152.372 245.187 151.872 245.547 151.278 245.803C150.684 246.059 150.003 246.188 149.234 246.188C148.466 246.188 147.781 246.059 147.181 245.803C146.588 245.547 146.084 245.187 145.672 244.725C145.266 244.256 144.956 243.709 144.744 243.084C144.531 242.453 144.425 241.769 144.425 241.031ZM147.125 240.834V241.031C147.125 241.456 147.163 241.853 147.238 242.222C147.313 242.591 147.431 242.916 147.594 243.197C147.763 243.472 147.981 243.687 148.25 243.844C148.519 244 148.847 244.078 149.234 244.078C149.609 244.078 149.931 244 150.2 243.844C150.469 243.687 150.684 243.472 150.847 243.197C151.009 242.916 151.128 242.591 151.203 242.222C151.284 241.853 151.325 241.456 151.325 241.031V240.834C151.325 240.422 151.284 240.034 151.203 239.672C151.128 239.303 151.006 238.978 150.838 238.697C150.675 238.409 150.459 238.184 150.191 238.022C149.922 237.859 149.597 237.778 149.216 237.778C148.834 237.778 148.509 237.859 148.241 238.022C147.978 238.184 147.763 238.409 147.594 238.697C147.431 238.978 147.313 239.303 147.238 239.672C147.163 240.034 147.125 240.422 147.125 240.834ZM158.544 231.6V246H155.834V231.6H158.544ZM164.225 244.031L166.475 235.856H169.297L165.875 246H164.169L164.225 244.031ZM162.678 235.856L164.938 244.041L164.984 246H163.269L159.847 235.856H162.678ZM175.044 246.188C174.256 246.188 173.55 246.063 172.925 245.812C172.3 245.556 171.769 245.203 171.331 244.753C170.9 244.303 170.569 243.781 170.338 243.187C170.106 242.587 169.991 241.95 169.991 241.275V240.9C169.991 240.131 170.1 239.428 170.319 238.791C170.538 238.153 170.85 237.6 171.256 237.131C171.669 236.662 172.169 236.303 172.756 236.053C173.344 235.797 174.006 235.669 174.744 235.669C175.463 235.669 176.1 235.787 176.656 236.025C177.213 236.262 177.678 236.6 178.053 237.037C178.434 237.475 178.722 238 178.916 238.612C179.109 239.219 179.206 239.894 179.206 240.637V241.762H171.144V239.962H176.553V239.756C176.553 239.381 176.484 239.047 176.347 238.753C176.216 238.453 176.016 238.216 175.747 238.041C175.478 237.866 175.134 237.778 174.716 237.778C174.359 237.778 174.053 237.856 173.797 238.012C173.541 238.169 173.331 238.387 173.169 238.669C173.013 238.95 172.894 239.281 172.813 239.662C172.738 240.037 172.7 240.45 172.7 240.9V241.275C172.7 241.681 172.756 242.056 172.869 242.4C172.988 242.744 173.153 243.041 173.366 243.291C173.584 243.541 173.847 243.734 174.153 243.872C174.466 244.009 174.819 244.078 175.213 244.078C175.7 244.078 176.153 243.984 176.572 243.797C176.997 243.603 177.363 243.312 177.669 242.925L178.981 244.35C178.769 244.656 178.478 244.95 178.109 245.231C177.747 245.512 177.309 245.744 176.797 245.925C176.284 246.1 175.7 246.188 175.044 246.188ZM186.734 243.787V231.6H189.453V246H187.006L186.734 243.787ZM180.322 241.05V240.853C180.322 240.078 180.409 239.375 180.584 238.744C180.759 238.106 181.016 237.559 181.353 237.103C181.691 236.647 182.106 236.294 182.6 236.044C183.094 235.794 183.656 235.669 184.288 235.669C184.881 235.669 185.4 235.794 185.844 236.044C186.294 236.294 186.675 236.65 186.988 237.112C187.306 237.569 187.563 238.109 187.756 238.734C187.95 239.353 188.091 240.031 188.178 240.769V241.2C188.091 241.906 187.95 242.562 187.756 243.169C187.563 243.775 187.306 244.306 186.988 244.762C186.675 245.212 186.294 245.562 185.844 245.812C185.394 246.063 184.869 246.188 184.269 246.188C183.638 246.188 183.075 246.059 182.581 245.803C182.094 245.547 181.681 245.187 181.344 244.725C181.013 244.262 180.759 243.719 180.584 243.094C180.409 242.469 180.322 241.787 180.322 241.05ZM183.022 240.853V241.05C183.022 241.469 183.053 241.859 183.116 242.222C183.184 242.584 183.294 242.906 183.444 243.187C183.6 243.462 183.8 243.678 184.044 243.834C184.294 243.984 184.597 244.059 184.953 244.059C185.416 244.059 185.797 243.956 186.097 243.75C186.397 243.537 186.625 243.247 186.781 242.878C186.944 242.509 187.038 242.084 187.063 241.603V240.375C187.044 239.981 186.988 239.628 186.894 239.316C186.806 238.997 186.675 238.725 186.5 238.5C186.331 238.275 186.119 238.1 185.863 237.975C185.613 237.85 185.316 237.787 184.972 237.787C184.622 237.787 184.322 237.869 184.072 238.031C183.822 238.187 183.619 238.403 183.463 238.678C183.313 238.953 183.2 239.278 183.125 239.653C183.056 240.022 183.022 240.422 183.022 240.853Z" fill="#33C1BD"/>
<rect x="122.5" y="65.5" width="99" height="39" fill="#F7FCFC" stroke="#33C1BD"/>
<path d="M146.406 83.3984H147.57C147.982 83.3984 148.32 83.3281 148.586 83.1875C148.857 83.0417 149.057 82.8438 149.188 82.5938C149.323 82.3385 149.391 82.0443 149.391 81.7109C149.391 81.3828 149.331 81.099 149.211 80.8594C149.091 80.6146 148.909 80.4271 148.664 80.2969C148.424 80.1615 148.117 80.0938 147.742 80.0938C147.44 80.0938 147.161 80.1536 146.906 80.2734C146.656 80.3932 146.456 80.5651 146.305 80.7891C146.159 81.0078 146.086 81.2708 146.086 81.5781H144.016C144.016 80.9635 144.177 80.4245 144.5 79.9609C144.828 79.4922 145.271 79.125 145.828 78.8594C146.385 78.5938 147.008 78.4609 147.695 78.4609C148.445 78.4609 149.102 78.5859 149.664 78.8359C150.232 79.0807 150.672 79.4427 150.984 79.9219C151.302 80.401 151.461 80.9948 151.461 81.7031C151.461 82.0417 151.38 82.3802 151.219 82.7188C151.062 83.0521 150.831 83.3542 150.523 83.625C150.221 83.8906 149.849 84.1068 149.406 84.2734C148.969 84.4349 148.466 84.5156 147.898 84.5156H146.406V83.3984ZM146.406 84.9922V83.8906H147.898C148.539 83.8906 149.094 83.9661 149.562 84.1172C150.036 84.263 150.427 84.4714 150.734 84.7422C151.042 85.0078 151.268 85.3177 151.414 85.6719C151.565 86.026 151.641 86.4062 151.641 86.8125C151.641 87.3438 151.542 87.8177 151.344 88.2344C151.146 88.6458 150.867 88.9948 150.508 89.2812C150.154 89.5677 149.737 89.7865 149.258 89.9375C148.779 90.0833 148.26 90.1562 147.703 90.1562C147.219 90.1562 146.747 90.0911 146.289 89.9609C145.836 89.8255 145.427 89.625 145.062 89.3594C144.698 89.0885 144.409 88.75 144.195 88.3438C143.982 87.9323 143.875 87.4557 143.875 86.9141H145.945C145.945 87.2266 146.021 87.5052 146.172 87.75C146.328 87.9948 146.542 88.1875 146.812 88.3281C147.089 88.4635 147.398 88.5312 147.742 88.5312C148.122 88.5312 148.448 88.4635 148.719 88.3281C148.995 88.1875 149.206 87.9896 149.352 87.7344C149.497 87.474 149.57 87.1641 149.57 86.8047C149.57 86.3776 149.49 86.0312 149.328 85.7656C149.167 85.5 148.935 85.3047 148.633 85.1797C148.336 85.0547 147.982 84.9922 147.57 84.9922H146.406ZM160.82 83.3359V85.25C160.82 86.125 160.732 86.8724 160.555 87.4922C160.378 88.112 160.122 88.6198 159.789 89.0156C159.456 89.4062 159.057 89.6953 158.594 89.8828C158.13 90.0651 157.615 90.1562 157.047 90.1562C156.594 90.1562 156.172 90.099 155.781 89.9844C155.391 89.8646 155.039 89.6823 154.727 89.4375C154.419 89.1875 154.154 88.8698 153.93 88.4844C153.711 88.099 153.542 87.638 153.422 87.1016C153.307 86.5651 153.25 85.9479 153.25 85.25V83.3359C153.25 82.4609 153.339 81.7161 153.516 81.1016C153.698 80.487 153.956 79.9844 154.289 79.5938C154.622 79.2031 155.021 78.9193 155.484 78.7422C155.948 78.5599 156.464 78.4688 157.031 78.4688C157.49 78.4688 157.911 78.526 158.297 78.6406C158.688 78.7552 159.036 78.9349 159.344 79.1797C159.656 79.4193 159.922 79.7318 160.141 80.1172C160.359 80.4974 160.526 80.9557 160.641 81.4922C160.76 82.0234 160.82 82.638 160.82 83.3359ZM158.758 85.5312V83.0469C158.758 82.6094 158.732 82.2292 158.68 81.9062C158.633 81.5781 158.562 81.2995 158.469 81.0703C158.375 80.8411 158.258 80.6562 158.117 80.5156C157.977 80.3698 157.815 80.263 157.633 80.1953C157.451 80.1276 157.25 80.0938 157.031 80.0938C156.76 80.0938 156.518 80.1484 156.305 80.2578C156.091 80.362 155.911 80.5286 155.766 80.7578C155.62 80.987 155.508 81.2917 155.43 81.6719C155.357 82.0469 155.32 82.5052 155.32 83.0469V85.5312C155.32 85.9688 155.344 86.3516 155.391 86.6797C155.443 87.0078 155.516 87.2891 155.609 87.5234C155.708 87.7578 155.826 87.9505 155.961 88.1016C156.102 88.2474 156.263 88.3568 156.445 88.4297C156.628 88.4974 156.828 88.5312 157.047 88.5312C157.323 88.5312 157.565 88.4766 157.773 88.3672C157.987 88.2578 158.167 88.0859 158.312 87.8516C158.458 87.612 158.568 87.3021 158.641 86.9219C158.719 86.5365 158.758 86.0729 158.758 85.5312ZM170.078 90H167.625L167.641 88.3125H170.078C170.74 88.3125 171.294 88.1667 171.742 87.875C172.19 87.5781 172.529 87.1536 172.758 86.6016C172.987 86.0443 173.102 85.3776 173.102 84.6016V84.0156C173.102 83.4167 173.036 82.888 172.906 82.4297C172.776 81.9714 172.583 81.5859 172.328 81.2734C172.078 80.9609 171.768 80.724 171.398 80.5625C171.029 80.401 170.604 80.3203 170.125 80.3203H167.578V78.625H170.125C170.885 78.625 171.578 78.7526 172.203 79.0078C172.833 79.263 173.378 79.6302 173.836 80.1094C174.299 80.5833 174.654 81.151 174.898 81.8125C175.148 82.474 175.273 83.2135 175.273 84.0312V84.6016C175.273 85.4141 175.148 86.1536 174.898 86.8203C174.654 87.4818 174.299 88.0495 173.836 88.5234C173.378 88.9974 172.831 89.362 172.195 89.6172C171.56 89.8724 170.854 90 170.078 90ZM168.828 78.625V90H166.68V78.625H168.828ZM181.602 88.2031V84.3047C181.602 84.0182 181.552 83.7708 181.453 83.5625C181.354 83.3542 181.203 83.1927 181 83.0781C180.797 82.9635 180.539 82.9062 180.227 82.9062C179.951 82.9062 179.708 82.9531 179.5 83.0469C179.297 83.1406 179.141 83.2734 179.031 83.4453C178.922 83.612 178.867 83.8047 178.867 84.0234H176.797C176.797 83.6745 176.88 83.3438 177.047 83.0312C177.214 82.7135 177.451 82.4323 177.758 82.1875C178.07 81.9375 178.443 81.7422 178.875 81.6016C179.312 81.4609 179.802 81.3906 180.344 81.3906C180.984 81.3906 181.555 81.5 182.055 81.7188C182.56 81.9323 182.956 82.2552 183.242 82.6875C183.534 83.1198 183.68 83.6641 183.68 84.3203V88.0078C183.68 88.4297 183.706 88.7917 183.758 89.0938C183.815 89.3906 183.898 89.6484 184.008 89.8672V90H181.906C181.807 89.7865 181.732 89.5156 181.68 89.1875C181.628 88.8542 181.602 88.526 181.602 88.2031ZM181.891 84.8516L181.906 86.0781H180.602C180.279 86.0781 179.995 86.112 179.75 86.1797C179.505 86.2422 179.305 86.3359 179.148 86.4609C178.992 86.5807 178.875 86.7266 178.797 86.8984C178.719 87.0651 178.68 87.2552 178.68 87.4688C178.68 87.6771 178.727 87.8646 178.82 88.0312C178.919 88.1979 179.06 88.3307 179.242 88.4297C179.43 88.5234 179.648 88.5703 179.898 88.5703C180.263 88.5703 180.581 88.4974 180.852 88.3516C181.122 88.2005 181.333 88.0182 181.484 87.8047C181.635 87.5911 181.716 87.388 181.727 87.1953L182.32 88.0859C182.247 88.2995 182.138 88.526 181.992 88.7656C181.846 89.0052 181.659 89.2292 181.43 89.4375C181.201 89.6458 180.924 89.8177 180.602 89.9531C180.279 90.0885 179.904 90.1562 179.477 90.1562C178.93 90.1562 178.44 90.0469 178.008 89.8281C177.576 89.6094 177.234 89.3099 176.984 88.9297C176.734 88.5495 176.609 88.1172 176.609 87.6328C176.609 87.1849 176.693 86.7891 176.859 86.4453C177.026 86.1016 177.273 85.8125 177.602 85.5781C177.93 85.3385 178.336 85.1589 178.82 85.0391C179.31 84.9141 179.87 84.8516 180.5 84.8516H181.891ZM187.891 89.0625L190.156 81.5469H192.367L188.977 91.2812C188.898 91.4896 188.797 91.7161 188.672 91.9609C188.552 92.2057 188.391 92.4375 188.188 92.6562C187.984 92.8802 187.729 93.0625 187.422 93.2031C187.12 93.3438 186.753 93.4141 186.32 93.4141C186.133 93.4141 185.966 93.401 185.82 93.375C185.674 93.349 185.521 93.3151 185.359 93.2734V91.7266C185.411 91.7318 185.471 91.7344 185.539 91.7344C185.612 91.7396 185.674 91.7422 185.727 91.7422C186.029 91.7422 186.279 91.7057 186.477 91.6328C186.674 91.5651 186.833 91.4531 186.953 91.2969C187.078 91.1458 187.182 90.9479 187.266 90.7031L187.891 89.0625ZM186.773 81.5469L188.688 87.7734L189.023 89.9531L187.602 90.2109L184.547 81.5469H186.773ZM198.016 87.6875C198.016 87.5104 197.969 87.3516 197.875 87.2109C197.781 87.0703 197.604 86.9427 197.344 86.8281C197.089 86.7083 196.714 86.5964 196.219 86.4922C195.781 86.3984 195.378 86.2812 195.008 86.1406C194.638 86 194.32 85.8307 194.055 85.6328C193.789 85.4297 193.581 85.1927 193.43 84.9219C193.284 84.6458 193.211 84.3281 193.211 83.9688C193.211 83.6198 193.286 83.2917 193.438 82.9844C193.589 82.6719 193.807 82.3984 194.094 82.1641C194.38 81.9245 194.729 81.737 195.141 81.6016C195.552 81.4609 196.016 81.3906 196.531 81.3906C197.25 81.3906 197.867 81.5078 198.383 81.7422C198.904 81.9766 199.302 82.2995 199.578 82.7109C199.854 83.1172 199.992 83.5755 199.992 84.0859H197.93C197.93 83.862 197.878 83.6589 197.773 83.4766C197.674 83.2943 197.521 83.1484 197.312 83.0391C197.104 82.9245 196.841 82.8672 196.523 82.8672C196.237 82.8672 195.995 82.9141 195.797 83.0078C195.604 83.1016 195.458 83.224 195.359 83.375C195.26 83.526 195.211 83.6927 195.211 83.875C195.211 84.0104 195.237 84.1328 195.289 84.2422C195.346 84.3464 195.438 84.4427 195.562 84.5312C195.688 84.6198 195.857 84.7005 196.07 84.7734C196.289 84.8464 196.557 84.9167 196.875 84.9844C197.505 85.1094 198.055 85.276 198.523 85.4844C198.997 85.6875 199.367 85.9583 199.633 86.2969C199.898 86.6354 200.031 87.0677 200.031 87.5938C200.031 87.9688 199.951 88.3125 199.789 88.625C199.628 88.9323 199.393 89.2005 199.086 89.4297C198.779 89.6589 198.411 89.8385 197.984 89.9688C197.557 90.0938 197.076 90.1562 196.539 90.1562C195.763 90.1562 195.107 90.0182 194.57 89.7422C194.034 89.4609 193.628 89.1068 193.352 88.6797C193.076 88.2474 192.938 87.7995 192.938 87.3359H194.914C194.93 87.6641 195.018 87.9271 195.18 88.125C195.341 88.3229 195.544 88.4661 195.789 88.5547C196.039 88.638 196.302 88.6797 196.578 88.6797C196.891 88.6797 197.154 88.638 197.367 88.5547C197.581 88.4661 197.742 88.349 197.852 88.2031C197.961 88.0521 198.016 87.8802 198.016 87.6875Z" fill="#05052C"/>
<path d="M23.5 73C23.5 68.8579 26.8579 65.5 31 65.5H122.5V104.5H31C26.8579 104.5 23.5 101.142 23.5 97V73Z" fill="#F7FCFC" stroke="#33C1BD"/>
<path d="M41.2266 78.5938V90H39.1562V81.0078L36.4141 81.9141V80.2422L40.9922 78.5938H41.2266ZM52.7578 88.375V90H45.0547V88.6094L48.75 84.6172C49.1354 84.1797 49.4401 83.7995 49.6641 83.4766C49.888 83.1536 50.0469 82.862 50.1406 82.6016C50.2396 82.3359 50.2891 82.0833 50.2891 81.8438C50.2891 81.4948 50.2266 81.1901 50.1016 80.9297C49.9766 80.6641 49.7943 80.4583 49.5547 80.3125C49.3203 80.1667 49.0312 80.0938 48.6875 80.0938C48.3073 80.0938 47.9818 80.1823 47.7109 80.3594C47.4453 80.5312 47.2422 80.7708 47.1016 81.0781C46.9661 81.3854 46.8984 81.737 46.8984 82.1328H44.8281C44.8281 81.4609 44.9844 80.849 45.2969 80.2969C45.6094 79.7396 46.0573 79.2943 46.6406 78.9609C47.224 78.6276 47.9167 78.4609 48.7188 78.4609C49.5 78.4609 50.1615 78.5911 50.7031 78.8516C51.2448 79.1068 51.6562 79.4714 51.9375 79.9453C52.2188 80.4193 52.3594 80.9844 52.3594 81.6406C52.3594 82.0052 52.2995 82.3646 52.1797 82.7188C52.0599 83.0729 51.8906 83.4245 51.6719 83.7734C51.4583 84.1172 51.2031 84.4661 50.9062 84.8203C50.6094 85.1745 50.2786 85.5365 49.9141 85.9062L47.6953 88.375H52.7578ZM59.3828 78.625H61.2422L64.3516 87.1875L67.4531 78.625H69.3203L65.0938 90H63.6016L59.3828 78.625ZM58.4453 78.625H60.2656L60.5938 86.4922V90H58.4453V78.625ZM68.4297 78.625H70.2578V90H68.1094V86.4922L68.4297 78.625ZM71.9219 85.8594V85.6953C71.9219 85.0755 72.0104 84.5052 72.1875 83.9844C72.3646 83.4583 72.6224 83.0026 72.9609 82.6172C73.2995 82.2318 73.7135 81.9323 74.2031 81.7188C74.6927 81.5 75.25 81.3906 75.875 81.3906C76.5104 81.3906 77.0729 81.5 77.5625 81.7188C78.0573 81.9323 78.474 82.2318 78.8125 82.6172C79.151 83.0026 79.4089 83.4583 79.5859 83.9844C79.763 84.5052 79.8516 85.0755 79.8516 85.6953V85.8594C79.8516 86.474 79.763 87.0443 79.5859 87.5703C79.4089 88.0911 79.151 88.5469 78.8125 88.9375C78.474 89.3229 78.0599 89.6224 77.5703 89.8359C77.0807 90.0495 76.5208 90.1562 75.8906 90.1562C75.2656 90.1562 74.7057 90.0495 74.2109 89.8359C73.7161 89.6224 73.2995 89.3229 72.9609 88.9375C72.6224 88.5469 72.3646 88.0911 72.1875 87.5703C72.0104 87.0443 71.9219 86.474 71.9219 85.8594ZM73.9844 85.6953V85.8594C73.9844 86.2292 74.0208 86.5755 74.0938 86.8984C74.1667 87.2214 74.2786 87.5052 74.4297 87.75C74.5807 87.9948 74.776 88.1875 75.0156 88.3281C75.2604 88.4635 75.5521 88.5312 75.8906 88.5312C76.224 88.5312 76.5104 88.4635 76.75 88.3281C76.9896 88.1875 77.1849 87.9948 77.3359 87.75C77.4922 87.5052 77.6068 87.2214 77.6797 86.8984C77.7526 86.5755 77.7891 86.2292 77.7891 85.8594V85.6953C77.7891 85.3307 77.7526 84.9896 77.6797 84.6719C77.6068 84.349 77.4922 84.0651 77.3359 83.8203C77.1849 83.5703 76.987 83.375 76.7422 83.2344C76.5026 83.0885 76.2135 83.0156 75.875 83.0156C75.5417 83.0156 75.2552 83.0885 75.0156 83.2344C74.776 83.375 74.5807 83.5703 74.4297 83.8203C74.2786 84.0651 74.1667 84.349 74.0938 84.6719C74.0208 84.9896 73.9844 85.3307 73.9844 85.6953ZM83.375 83.3516V90H81.3125V81.5469H83.25L83.375 83.3516ZM83.0469 85.4688H82.4375C82.4427 84.8542 82.526 84.2969 82.6875 83.7969C82.849 83.2969 83.0755 82.8672 83.3672 82.5078C83.6641 82.1484 84.0156 81.8724 84.4219 81.6797C84.8281 81.487 85.2812 81.3906 85.7812 81.3906C86.1875 81.3906 86.5547 81.4479 86.8828 81.5625C87.2109 81.6771 87.4922 81.8594 87.7266 82.1094C87.9661 82.3594 88.1484 82.6875 88.2734 83.0938C88.4036 83.4948 88.4688 83.9896 88.4688 84.5781V90H86.3906V84.5625C86.3906 84.1771 86.3333 83.8724 86.2188 83.6484C86.1094 83.4245 85.9479 83.2656 85.7344 83.1719C85.526 83.0781 85.2682 83.0312 84.9609 83.0312C84.6432 83.0312 84.3646 83.0964 84.125 83.2266C83.8906 83.3516 83.6927 83.526 83.5312 83.75C83.375 83.974 83.2552 84.2318 83.1719 84.5234C83.0885 84.8151 83.0469 85.1302 83.0469 85.4688ZM94.2891 81.5469V83.0312H89.4453V81.5469H94.2891ZM90.7422 79.4688H92.8125V87.5625C92.8125 87.8125 92.8464 88.0052 92.9141 88.1406C92.9818 88.276 93.0833 88.3672 93.2188 88.4141C93.3542 88.4609 93.5156 88.4844 93.7031 88.4844C93.8385 88.4844 93.9635 88.4766 94.0781 88.4609C94.1927 88.4453 94.2891 88.4297 94.3672 88.4141L94.375 89.9609C94.2031 90.0182 94.0078 90.0651 93.7891 90.1016C93.5755 90.138 93.3333 90.1562 93.0625 90.1562C92.599 90.1562 92.1927 90.0781 91.8438 89.9219C91.4948 89.7604 91.224 89.5026 91.0312 89.1484C90.8385 88.7891 90.7422 88.3151 90.7422 87.7266V79.4688ZM97.6875 78V90H95.6172V78H97.6875ZM97.3594 85.4688H96.75C96.75 84.8802 96.8281 84.3385 96.9844 83.8438C97.1406 83.349 97.362 82.9193 97.6484 82.5547C97.9349 82.1849 98.276 81.8984 98.6719 81.6953C99.0729 81.4922 99.5156 81.3906 100 81.3906C100.417 81.3906 100.794 81.4505 101.133 81.5703C101.477 81.6849 101.771 81.8698 102.016 82.125C102.26 82.3802 102.448 82.7135 102.578 83.125C102.714 83.5312 102.781 84.026 102.781 84.6094V90H100.703V84.5938C100.703 84.2031 100.646 83.8958 100.531 83.6719C100.417 83.4427 100.253 83.2786 100.039 83.1797C99.8307 83.0807 99.5729 83.0312 99.2656 83.0312C98.9323 83.0312 98.6458 83.0964 98.4062 83.2266C98.1667 83.3516 97.9688 83.526 97.8125 83.75C97.6615 83.974 97.5469 84.2318 97.4688 84.5234C97.3958 84.8151 97.3594 85.1302 97.3594 85.4688ZM109.25 87.6875C109.25 87.5104 109.203 87.3516 109.109 87.2109C109.016 87.0703 108.839 86.9427 108.578 86.8281C108.323 86.7083 107.948 86.5964 107.453 86.4922C107.016 86.3984 106.612 86.2812 106.242 86.1406C105.872 86 105.555 85.8307 105.289 85.6328C105.023 85.4297 104.815 85.1927 104.664 84.9219C104.518 84.6458 104.445 84.3281 104.445 83.9688C104.445 83.6198 104.521 83.2917 104.672 82.9844C104.823 82.6719 105.042 82.3984 105.328 82.1641C105.615 81.9245 105.964 81.737 106.375 81.6016C106.786 81.4609 107.25 81.3906 107.766 81.3906C108.484 81.3906 109.102 81.5078 109.617 81.7422C110.138 81.9766 110.536 82.2995 110.812 82.7109C111.089 83.1172 111.227 83.5755 111.227 84.0859H109.164C109.164 83.862 109.112 83.6589 109.008 83.4766C108.909 83.2943 108.755 83.1484 108.547 83.0391C108.339 82.9245 108.076 82.8672 107.758 82.8672C107.471 82.8672 107.229 82.9141 107.031 83.0078C106.839 83.1016 106.693 83.224 106.594 83.375C106.495 83.526 106.445 83.6927 106.445 83.875C106.445 84.0104 106.471 84.1328 106.523 84.2422C106.581 84.3464 106.672 84.4427 106.797 84.5312C106.922 84.6198 107.091 84.7005 107.305 84.7734C107.523 84.8464 107.792 84.9167 108.109 84.9844C108.74 85.1094 109.289 85.276 109.758 85.4844C110.232 85.6875 110.602 85.9583 110.867 86.2969C111.133 86.6354 111.266 87.0677 111.266 87.5938C111.266 87.9688 111.185 88.3125 111.023 88.625C110.862 88.9323 110.628 89.2005 110.32 89.4297C110.013 89.6589 109.646 89.8385 109.219 89.9688C108.792 90.0938 108.31 90.1562 107.773 90.1562C106.997 90.1562 106.341 90.0182 105.805 89.7422C105.268 89.4609 104.862 89.1068 104.586 88.6797C104.31 88.2474 104.172 87.7995 104.172 87.3359H106.148C106.164 87.6641 106.253 87.9271 106.414 88.125C106.576 88.3229 106.779 88.4661 107.023 88.5547C107.273 88.638 107.536 88.6797 107.812 88.6797C108.125 88.6797 108.388 88.638 108.602 88.5547C108.815 88.4661 108.977 88.349 109.086 88.2031C109.195 88.0521 109.25 87.8802 109.25 87.6875Z" fill="#05052C"/>
<path d="M221.5 65.5H313C317.142 65.5 320.5 68.8579 320.5 73V97C320.5 101.142 317.142 104.5 313 104.5H221.5V65.5Z" fill="#F7FCFC" stroke="#33C1BD"/>
<path d="M255.859 78.625V79.75L251.391 90H249.211L253.68 80.25H247.898V78.625H255.859ZM265.008 90H262.555L262.57 88.3125H265.008C265.669 88.3125 266.224 88.1667 266.672 87.875C267.12 87.5781 267.458 87.1536 267.688 86.6016C267.917 86.0443 268.031 85.3776 268.031 84.6016V84.0156C268.031 83.4167 267.966 82.888 267.836 82.4297C267.706 81.9714 267.513 81.5859 267.258 81.2734C267.008 80.9609 266.698 80.724 266.328 80.5625C265.958 80.401 265.534 80.3203 265.055 80.3203H262.508V78.625H265.055C265.815 78.625 266.508 78.7526 267.133 79.0078C267.763 79.263 268.307 79.6302 268.766 80.1094C269.229 80.5833 269.583 81.151 269.828 81.8125C270.078 82.474 270.203 83.2135 270.203 84.0312V84.6016C270.203 85.4141 270.078 86.1536 269.828 86.8203C269.583 87.4818 269.229 88.0495 268.766 88.5234C268.307 88.9974 267.76 89.362 267.125 89.6172C266.49 89.8724 265.784 90 265.008 90ZM263.758 78.625V90H261.609V78.625H263.758ZM276.531 88.2031V84.3047C276.531 84.0182 276.482 83.7708 276.383 83.5625C276.284 83.3542 276.133 83.1927 275.93 83.0781C275.727 82.9635 275.469 82.9062 275.156 82.9062C274.88 82.9062 274.638 82.9531 274.43 83.0469C274.227 83.1406 274.07 83.2734 273.961 83.4453C273.852 83.612 273.797 83.8047 273.797 84.0234H271.727C271.727 83.6745 271.81 83.3438 271.977 83.0312C272.143 82.7135 272.38 82.4323 272.688 82.1875C273 81.9375 273.372 81.7422 273.805 81.6016C274.242 81.4609 274.732 81.3906 275.273 81.3906C275.914 81.3906 276.484 81.5 276.984 81.7188C277.49 81.9323 277.885 82.2552 278.172 82.6875C278.464 83.1198 278.609 83.6641 278.609 84.3203V88.0078C278.609 88.4297 278.635 88.7917 278.688 89.0938C278.745 89.3906 278.828 89.6484 278.938 89.8672V90H276.836C276.737 89.7865 276.661 89.5156 276.609 89.1875C276.557 88.8542 276.531 88.526 276.531 88.2031ZM276.82 84.8516L276.836 86.0781H275.531C275.208 86.0781 274.924 86.112 274.68 86.1797C274.435 86.2422 274.234 86.3359 274.078 86.4609C273.922 86.5807 273.805 86.7266 273.727 86.8984C273.648 87.0651 273.609 87.2552 273.609 87.4688C273.609 87.6771 273.656 87.8646 273.75 88.0312C273.849 88.1979 273.99 88.3307 274.172 88.4297C274.359 88.5234 274.578 88.5703 274.828 88.5703C275.193 88.5703 275.51 88.4974 275.781 88.3516C276.052 88.2005 276.263 88.0182 276.414 87.8047C276.565 87.5911 276.646 87.388 276.656 87.1953L277.25 88.0859C277.177 88.2995 277.068 88.526 276.922 88.7656C276.776 89.0052 276.589 89.2292 276.359 89.4375C276.13 89.6458 275.854 89.8177 275.531 89.9531C275.208 90.0885 274.833 90.1562 274.406 90.1562C273.859 90.1562 273.37 90.0469 272.938 89.8281C272.505 89.6094 272.164 89.3099 271.914 88.9297C271.664 88.5495 271.539 88.1172 271.539 87.6328C271.539 87.1849 271.622 86.7891 271.789 86.4453C271.956 86.1016 272.203 85.8125 272.531 85.5781C272.859 85.3385 273.266 85.1589 273.75 85.0391C274.24 84.9141 274.799 84.8516 275.43 84.8516H276.82ZM282.82 89.0625L285.086 81.5469H287.297L283.906 91.2812C283.828 91.4896 283.727 91.7161 283.602 91.9609C283.482 92.2057 283.32 92.4375 283.117 92.6562C282.914 92.8802 282.659 93.0625 282.352 93.2031C282.049 93.3438 281.682 93.4141 281.25 93.4141C281.062 93.4141 280.896 93.401 280.75 93.375C280.604 93.349 280.451 93.3151 280.289 93.2734V91.7266C280.341 91.7318 280.401 91.7344 280.469 91.7344C280.542 91.7396 280.604 91.7422 280.656 91.7422C280.958 91.7422 281.208 91.7057 281.406 91.6328C281.604 91.5651 281.763 91.4531 281.883 91.2969C282.008 91.1458 282.112 90.9479 282.195 90.7031L282.82 89.0625ZM281.703 81.5469L283.617 87.7734L283.953 89.9531L282.531 90.2109L279.477 81.5469H281.703ZM292.945 87.6875C292.945 87.5104 292.898 87.3516 292.805 87.2109C292.711 87.0703 292.534 86.9427 292.273 86.8281C292.018 86.7083 291.643 86.5964 291.148 86.4922C290.711 86.3984 290.307 86.2812 289.938 86.1406C289.568 86 289.25 85.8307 288.984 85.6328C288.719 85.4297 288.51 85.1927 288.359 84.9219C288.214 84.6458 288.141 84.3281 288.141 83.9688C288.141 83.6198 288.216 83.2917 288.367 82.9844C288.518 82.6719 288.737 82.3984 289.023 82.1641C289.31 81.9245 289.659 81.737 290.07 81.6016C290.482 81.4609 290.945 81.3906 291.461 81.3906C292.18 81.3906 292.797 81.5078 293.312 81.7422C293.833 81.9766 294.232 82.2995 294.508 82.7109C294.784 83.1172 294.922 83.5755 294.922 84.0859H292.859C292.859 83.862 292.807 83.6589 292.703 83.4766C292.604 83.2943 292.451 83.1484 292.242 83.0391C292.034 82.9245 291.771 82.8672 291.453 82.8672C291.167 82.8672 290.924 82.9141 290.727 83.0078C290.534 83.1016 290.388 83.224 290.289 83.375C290.19 83.526 290.141 83.6927 290.141 83.875C290.141 84.0104 290.167 84.1328 290.219 84.2422C290.276 84.3464 290.367 84.4427 290.492 84.5312C290.617 84.6198 290.786 84.7005 291 84.7734C291.219 84.8464 291.487 84.9167 291.805 84.9844C292.435 85.1094 292.984 85.276 293.453 85.4844C293.927 85.6875 294.297 85.9583 294.562 86.2969C294.828 86.6354 294.961 87.0677 294.961 87.5938C294.961 87.9688 294.88 88.3125 294.719 88.625C294.557 88.9323 294.323 89.2005 294.016 89.4297C293.708 89.6589 293.341 89.8385 292.914 89.9688C292.487 90.0938 292.005 90.1562 291.469 90.1562C290.693 90.1562 290.036 90.0182 289.5 89.7422C288.964 89.4609 288.557 89.1068 288.281 88.6797C288.005 88.2474 287.867 87.7995 287.867 87.3359H289.844C289.859 87.6641 289.948 87.9271 290.109 88.125C290.271 88.3229 290.474 88.4661 290.719 88.5547C290.969 88.638 291.232 88.6797 291.508 88.6797C291.82 88.6797 292.083 88.638 292.297 88.5547C292.51 88.4661 292.672 88.349 292.781 88.2031C292.891 88.0521 292.945 87.8802 292.945 87.6875Z" fill="#05052C"/>
<circle cx="309" cy="35" r="12" fill="#F7FCFC"/>
<path fill-rule="evenodd" clip-rule="evenodd" d="M303 27.6666C303.368 27.6666 303.667 27.9651 303.667 28.3333V31.6666H307C307.368 31.6666 307.667 31.9651 307.667 32.3333C307.667 32.7015 307.368 33 307 33H303C302.632 33 302.333 32.7015 302.333 32.3333V28.3333C302.333 27.9651 302.632 27.6666 303 27.6666Z" fill="#33C1BD"/>
<path fill-rule="evenodd" clip-rule="evenodd" d="M308.593 28.3789C310.084 28.2951 311.561 28.7148 312.786 29.5708C314.01 30.4268 314.912 31.6693 315.346 33.0991C315.78 34.5289 315.721 36.063 315.178 37.4553C314.636 38.8475 313.642 40.0172 312.355 40.7766C311.068 41.5359 309.563 41.841 308.082 41.6428C306.601 41.4447 305.23 40.7547 304.188 39.6837C303.146 38.6127 302.494 37.2227 302.337 35.7369C302.298 35.3707 302.564 35.0425 302.93 35.0037C303.296 34.965 303.624 35.2304 303.663 35.5965C303.789 36.7852 304.31 37.8972 305.144 38.754C305.977 39.6108 307.074 40.1627 308.259 40.3213C309.444 40.4798 310.648 40.2358 311.677 39.6283C312.707 39.0208 313.502 38.085 313.936 36.9712C314.37 35.8574 314.417 34.6302 314.07 33.4863C313.723 32.3425 313.002 31.3484 312.022 30.6636C311.042 29.9789 309.861 29.6431 308.667 29.7101C307.475 29.7772 306.34 30.2424 305.443 31.0313L303.446 32.8289C303.172 33.0752 302.751 33.053 302.504 32.7793C302.258 32.5057 302.28 32.0841 302.554 31.8378L304.559 30.0331C305.68 29.0453 307.101 28.4628 308.593 28.3789Z" fill="#33C1BD"/>
<path fill-rule="evenodd" clip-rule="evenodd" d="M38 167C37.4477 167 37 167.448 37 168V182C37 182.552 37.4477 183 38 183H52C52.5523 183 53 182.552 53 182V168C53 167.448 52.5523 167 52 167H38ZM35 168C35 166.343 36.3431 165 38 165H52C53.6569 165 55 166.343 55 168V182C55 183.657 53.6569 185 52 185H38C36.3431 185 35 183.657 35 182V168Z" fill="#B5B5BC"/>
<path fill-rule="evenodd" clip-rule="evenodd" d="M49 163C49.5523 163 50 163.448 50 164V168C50 168.552 49.5523 169 49 169C48.4477 169 48 168.552 48 168V164C48 163.448 48.4477 163 49 163Z" fill="#B5B5BC"/>
<path fill-rule="evenodd" clip-rule="evenodd" d="M41 163C41.5523 163 42 163.448 42 164V168C42 168.552 41.5523 169 41 169C40.4477 169 40 168.552 40 168V164C40 163.448 40.4477 163 41 163Z" fill="#B5B5BC"/>
<path fill-rule="evenodd" clip-rule="evenodd" d="M35 172C35 171.448 35.4477 171 36 171H54C54.5523 171 55 171.448 55 172C55 172.552 54.5523 173 54 173H36C35.4477 173 35 172.552 35 172Z" fill="#B5B5BC"/>
<rect x="23.5" y="154.5" width="297" height="39" rx="3.5" stroke="#EAEAEE"/>
<path fill-rule="evenodd" clip-rule="evenodd" d="M296.97 171.22C297.263 170.927 297.737 170.927 298.03 171.22L302 175.189L305.97 171.22C306.263 170.927 306.737 170.927 307.03 171.22C307.323 171.513 307.323 171.987 307.03 172.28L302.53 176.78C302.237 177.073 301.763 177.073 301.47 176.78L296.97 172.28C296.677 171.987 296.677 171.513 296.97 171.22Z" fill="black"/>
<path d="M68.7969 168.625H70.2578L73.9844 177.898L77.7031 168.625H79.1719L74.5469 180H73.4062L68.7969 168.625ZM68.3203 168.625H69.6094L69.8203 175.562V180H68.3203V168.625ZM78.3516 168.625H79.6406V180H78.1406V175.562L78.3516 168.625ZM87.0547 178.555V174.203C87.0547 173.87 86.987 173.581 86.8516 173.336C86.7214 173.086 86.5234 172.893 86.2578 172.758C85.9922 172.622 85.6641 172.555 85.2734 172.555C84.9089 172.555 84.5885 172.617 84.3125 172.742C84.0417 172.867 83.8281 173.031 83.6719 173.234C83.5208 173.438 83.4453 173.656 83.4453 173.891H82C82 173.589 82.0781 173.289 82.2344 172.992C82.3906 172.695 82.6146 172.427 82.9062 172.188C83.2031 171.943 83.5573 171.75 83.9688 171.609C84.3854 171.464 84.849 171.391 85.3594 171.391C85.974 171.391 86.5156 171.495 86.9844 171.703C87.4583 171.911 87.8281 172.227 88.0938 172.648C88.3646 173.065 88.5 173.589 88.5 174.219V178.156C88.5 178.438 88.5234 178.737 88.5703 179.055C88.6224 179.372 88.6979 179.646 88.7969 179.875V180H87.2891C87.2161 179.833 87.1589 179.612 87.1172 179.336C87.0755 179.055 87.0547 178.794 87.0547 178.555ZM87.3047 174.875L87.3203 175.891H85.8594C85.4479 175.891 85.0807 175.924 84.7578 175.992C84.4349 176.055 84.1641 176.151 83.9453 176.281C83.7266 176.411 83.5599 176.576 83.4453 176.773C83.3307 176.966 83.2734 177.193 83.2734 177.453C83.2734 177.719 83.3333 177.961 83.4531 178.18C83.5729 178.398 83.7526 178.573 83.9922 178.703C84.237 178.828 84.5365 178.891 84.8906 178.891C85.3333 178.891 85.724 178.797 86.0625 178.609C86.401 178.422 86.6693 178.193 86.8672 177.922C87.0703 177.651 87.1797 177.388 87.1953 177.133L87.8125 177.828C87.776 178.047 87.6771 178.289 87.5156 178.555C87.3542 178.82 87.138 179.076 86.8672 179.32C86.6016 179.56 86.2839 179.76 85.9141 179.922C85.5495 180.078 85.138 180.156 84.6797 180.156C84.1068 180.156 83.6042 180.044 83.1719 179.82C82.7448 179.596 82.4115 179.297 82.1719 178.922C81.9375 178.542 81.8203 178.117 81.8203 177.648C81.8203 177.195 81.9089 176.797 82.0859 176.453C82.263 176.104 82.5182 175.815 82.8516 175.586C83.1849 175.352 83.5859 175.174 84.0547 175.055C84.5234 174.935 85.0469 174.875 85.625 174.875H87.3047ZM93.0234 179.125L95.375 171.547H96.9219L93.5312 181.305C93.4531 181.513 93.349 181.737 93.2188 181.977C93.0938 182.221 92.9323 182.453 92.7344 182.672C92.5365 182.891 92.2969 183.068 92.0156 183.203C91.7396 183.344 91.4089 183.414 91.0234 183.414C90.9089 183.414 90.763 183.398 90.5859 183.367C90.4089 183.336 90.2839 183.31 90.2109 183.289L90.2031 182.117C90.2448 182.122 90.3099 182.128 90.3984 182.133C90.4922 182.143 90.5573 182.148 90.5938 182.148C90.9219 182.148 91.2005 182.104 91.4297 182.016C91.6589 181.932 91.8516 181.789 92.0078 181.586C92.1693 181.388 92.3073 181.115 92.4219 180.766L93.0234 179.125ZM91.2969 171.547L93.4922 178.109L93.8672 179.633L92.8281 180.164L89.7188 171.547H91.2969ZM106.789 168.562V180H105.344V170.367L102.43 171.43V170.125L106.562 168.562H106.789ZM118.211 176.922C118.211 177.615 118.049 178.203 117.727 178.688C117.409 179.167 116.977 179.531 116.43 179.781C115.888 180.031 115.276 180.156 114.594 180.156C113.911 180.156 113.297 180.031 112.75 179.781C112.203 179.531 111.771 179.167 111.453 178.688C111.135 178.203 110.977 177.615 110.977 176.922C110.977 176.469 111.062 176.055 111.234 175.68C111.411 175.299 111.659 174.969 111.977 174.688C112.299 174.406 112.68 174.19 113.117 174.039C113.56 173.883 114.047 173.805 114.578 173.805C115.276 173.805 115.898 173.94 116.445 174.211C116.992 174.477 117.422 174.844 117.734 175.312C118.052 175.781 118.211 176.318 118.211 176.922ZM116.758 176.891C116.758 176.469 116.667 176.096 116.484 175.773C116.302 175.445 116.047 175.19 115.719 175.008C115.391 174.826 115.01 174.734 114.578 174.734C114.135 174.734 113.753 174.826 113.43 175.008C113.112 175.19 112.865 175.445 112.688 175.773C112.51 176.096 112.422 176.469 112.422 176.891C112.422 177.328 112.508 177.703 112.68 178.016C112.857 178.323 113.107 178.56 113.43 178.727C113.758 178.888 114.146 178.969 114.594 178.969C115.042 178.969 115.427 178.888 115.75 178.727C116.073 178.56 116.32 178.323 116.492 178.016C116.669 177.703 116.758 177.328 116.758 176.891ZM117.945 171.586C117.945 172.138 117.799 172.635 117.508 173.078C117.216 173.521 116.818 173.87 116.312 174.125C115.807 174.38 115.234 174.508 114.594 174.508C113.943 174.508 113.362 174.38 112.852 174.125C112.346 173.87 111.951 173.521 111.664 173.078C111.378 172.635 111.234 172.138 111.234 171.586C111.234 170.924 111.378 170.362 111.664 169.898C111.956 169.435 112.354 169.081 112.859 168.836C113.365 168.591 113.94 168.469 114.586 168.469C115.237 168.469 115.815 168.591 116.32 168.836C116.826 169.081 117.221 169.435 117.508 169.898C117.799 170.362 117.945 170.924 117.945 171.586ZM116.5 171.609C116.5 171.229 116.419 170.893 116.258 170.602C116.096 170.31 115.872 170.081 115.586 169.914C115.299 169.742 114.966 169.656 114.586 169.656C114.206 169.656 113.872 169.737 113.586 169.898C113.305 170.055 113.083 170.279 112.922 170.57C112.766 170.862 112.688 171.208 112.688 171.609C112.688 172 112.766 172.341 112.922 172.633C113.083 172.924 113.307 173.151 113.594 173.312C113.88 173.474 114.214 173.555 114.594 173.555C114.974 173.555 115.305 173.474 115.586 173.312C115.872 173.151 116.096 172.924 116.258 172.633C116.419 172.341 116.5 172 116.5 171.609ZM127.172 174.57V175.758H123.359V174.57H127.172ZM137.547 176.68V168.625H139.047V176.68C139.047 177.43 138.893 178.062 138.586 178.578C138.279 179.094 137.854 179.487 137.312 179.758C136.776 180.023 136.159 180.156 135.461 180.156C134.763 180.156 134.143 180.036 133.602 179.797C133.06 179.557 132.635 179.193 132.328 178.703C132.021 178.214 131.867 177.596 131.867 176.852H133.375C133.375 177.331 133.464 177.724 133.641 178.031C133.818 178.339 134.062 178.565 134.375 178.711C134.693 178.857 135.055 178.93 135.461 178.93C135.857 178.93 136.211 178.846 136.523 178.68C136.841 178.508 137.091 178.255 137.273 177.922C137.456 177.583 137.547 177.169 137.547 176.68ZM146.555 178.047V171.547H148.008V180H146.625L146.555 178.047ZM146.828 176.266L147.43 176.25C147.43 176.812 147.37 177.333 147.25 177.812C147.135 178.286 146.948 178.698 146.688 179.047C146.427 179.396 146.086 179.669 145.664 179.867C145.242 180.06 144.729 180.156 144.125 180.156C143.714 180.156 143.336 180.096 142.992 179.977C142.654 179.857 142.362 179.672 142.117 179.422C141.872 179.172 141.682 178.846 141.547 178.445C141.417 178.044 141.352 177.562 141.352 177V171.547H142.797V177.016C142.797 177.396 142.839 177.711 142.922 177.961C143.01 178.206 143.128 178.401 143.273 178.547C143.424 178.688 143.591 178.786 143.773 178.844C143.961 178.901 144.154 178.93 144.352 178.93C144.966 178.93 145.453 178.812 145.812 178.578C146.172 178.339 146.43 178.018 146.586 177.617C146.747 177.211 146.828 176.76 146.828 176.266ZM151.656 173.352V180H150.211V171.547H151.578L151.656 173.352ZM151.312 175.453L150.711 175.43C150.716 174.852 150.802 174.318 150.969 173.828C151.135 173.333 151.37 172.904 151.672 172.539C151.974 172.174 152.333 171.893 152.75 171.695C153.172 171.492 153.638 171.391 154.148 171.391C154.565 171.391 154.94 171.448 155.273 171.562C155.607 171.672 155.891 171.849 156.125 172.094C156.365 172.339 156.547 172.656 156.672 173.047C156.797 173.432 156.859 173.904 156.859 174.461V180H155.406V174.445C155.406 174.003 155.341 173.648 155.211 173.383C155.081 173.112 154.891 172.917 154.641 172.797C154.391 172.672 154.083 172.609 153.719 172.609C153.359 172.609 153.031 172.685 152.734 172.836C152.443 172.987 152.19 173.195 151.977 173.461C151.768 173.727 151.604 174.031 151.484 174.375C151.37 174.714 151.312 175.073 151.312 175.453ZM162.562 180.156C161.974 180.156 161.44 180.057 160.961 179.859C160.487 179.656 160.078 179.372 159.734 179.008C159.396 178.643 159.135 178.211 158.953 177.711C158.771 177.211 158.68 176.664 158.68 176.07V175.742C158.68 175.055 158.781 174.443 158.984 173.906C159.188 173.365 159.464 172.906 159.812 172.531C160.161 172.156 160.557 171.872 161 171.68C161.443 171.487 161.901 171.391 162.375 171.391C162.979 171.391 163.5 171.495 163.938 171.703C164.38 171.911 164.742 172.203 165.023 172.578C165.305 172.948 165.513 173.385 165.648 173.891C165.784 174.391 165.852 174.938 165.852 175.531V176.18H159.539V175H164.406V174.891C164.385 174.516 164.307 174.151 164.172 173.797C164.042 173.443 163.833 173.151 163.547 172.922C163.26 172.693 162.87 172.578 162.375 172.578C162.047 172.578 161.745 172.648 161.469 172.789C161.193 172.924 160.956 173.128 160.758 173.398C160.56 173.669 160.406 174 160.297 174.391C160.188 174.781 160.133 175.232 160.133 175.742V176.07C160.133 176.471 160.188 176.849 160.297 177.203C160.411 177.552 160.576 177.859 160.789 178.125C161.008 178.391 161.271 178.599 161.578 178.75C161.891 178.901 162.245 178.977 162.641 178.977C163.151 178.977 163.583 178.872 163.938 178.664C164.292 178.456 164.602 178.177 164.867 177.828L165.742 178.523C165.56 178.799 165.328 179.062 165.047 179.312C164.766 179.562 164.419 179.766 164.008 179.922C163.602 180.078 163.12 180.156 162.562 180.156ZM176.102 168.562V180H174.656V170.367L171.742 171.43V170.125L175.875 168.562H176.102ZM187.523 176.922C187.523 177.615 187.362 178.203 187.039 178.688C186.721 179.167 186.289 179.531 185.742 179.781C185.201 180.031 184.589 180.156 183.906 180.156C183.224 180.156 182.609 180.031 182.062 179.781C181.516 179.531 181.083 179.167 180.766 178.688C180.448 178.203 180.289 177.615 180.289 176.922C180.289 176.469 180.375 176.055 180.547 175.68C180.724 175.299 180.971 174.969 181.289 174.688C181.612 174.406 181.992 174.19 182.43 174.039C182.872 173.883 183.359 173.805 183.891 173.805C184.589 173.805 185.211 173.94 185.758 174.211C186.305 174.477 186.734 174.844 187.047 175.312C187.365 175.781 187.523 176.318 187.523 176.922ZM186.07 176.891C186.07 176.469 185.979 176.096 185.797 175.773C185.615 175.445 185.359 175.19 185.031 175.008C184.703 174.826 184.323 174.734 183.891 174.734C183.448 174.734 183.065 174.826 182.742 175.008C182.424 175.19 182.177 175.445 182 175.773C181.823 176.096 181.734 176.469 181.734 176.891C181.734 177.328 181.82 177.703 181.992 178.016C182.169 178.323 182.419 178.56 182.742 178.727C183.07 178.888 183.458 178.969 183.906 178.969C184.354 178.969 184.74 178.888 185.062 178.727C185.385 178.56 185.633 178.323 185.805 178.016C185.982 177.703 186.07 177.328 186.07 176.891ZM187.258 171.586C187.258 172.138 187.112 172.635 186.82 173.078C186.529 173.521 186.13 173.87 185.625 174.125C185.12 174.38 184.547 174.508 183.906 174.508C183.255 174.508 182.674 174.38 182.164 174.125C181.659 173.87 181.263 173.521 180.977 173.078C180.69 172.635 180.547 172.138 180.547 171.586C180.547 170.924 180.69 170.362 180.977 169.898C181.268 169.435 181.667 169.081 182.172 168.836C182.677 168.591 183.253 168.469 183.898 168.469C184.549 168.469 185.128 168.591 185.633 168.836C186.138 169.081 186.534 169.435 186.82 169.898C187.112 170.362 187.258 170.924 187.258 171.586ZM185.812 171.609C185.812 171.229 185.732 170.893 185.57 170.602C185.409 170.31 185.185 170.081 184.898 169.914C184.612 169.742 184.279 169.656 183.898 169.656C183.518 169.656 183.185 169.737 182.898 169.898C182.617 170.055 182.396 170.279 182.234 170.57C182.078 170.862 182 171.208 182 171.609C182 172 182.078 172.341 182.234 172.633C182.396 172.924 182.62 173.151 182.906 173.312C183.193 173.474 183.526 173.555 183.906 173.555C184.286 173.555 184.617 173.474 184.898 173.312C185.185 173.151 185.409 172.924 185.57 172.633C185.732 172.341 185.812 172 185.812 171.609ZM190.82 178.281V179.445C190.82 179.919 190.701 180.419 190.461 180.945C190.221 181.477 189.885 181.919 189.453 182.273L188.633 181.703C188.799 181.474 188.94 181.24 189.055 181C189.169 180.766 189.255 180.521 189.312 180.266C189.375 180.016 189.406 179.75 189.406 179.469V178.281H190.82ZM203.93 178.812V180H196.484V178.961L200.211 174.812C200.669 174.302 201.023 173.87 201.273 173.516C201.529 173.156 201.706 172.836 201.805 172.555C201.909 172.268 201.961 171.977 201.961 171.68C201.961 171.305 201.883 170.966 201.727 170.664C201.576 170.357 201.352 170.112 201.055 169.93C200.758 169.747 200.398 169.656 199.977 169.656C199.471 169.656 199.049 169.755 198.711 169.953C198.378 170.146 198.128 170.417 197.961 170.766C197.794 171.115 197.711 171.516 197.711 171.969H196.266C196.266 171.328 196.406 170.742 196.688 170.211C196.969 169.68 197.385 169.258 197.938 168.945C198.49 168.628 199.169 168.469 199.977 168.469C200.695 168.469 201.31 168.596 201.82 168.852C202.331 169.102 202.721 169.456 202.992 169.914C203.268 170.367 203.406 170.898 203.406 171.508C203.406 171.841 203.349 172.18 203.234 172.523C203.125 172.862 202.971 173.201 202.773 173.539C202.581 173.878 202.354 174.211 202.094 174.539C201.839 174.867 201.565 175.19 201.273 175.508L198.227 178.812H203.93ZM212.617 173.406V175.141C212.617 176.073 212.534 176.859 212.367 177.5C212.201 178.141 211.961 178.656 211.648 179.047C211.336 179.438 210.958 179.721 210.516 179.898C210.078 180.07 209.583 180.156 209.031 180.156C208.594 180.156 208.19 180.102 207.82 179.992C207.451 179.883 207.117 179.708 206.82 179.469C206.529 179.224 206.279 178.906 206.07 178.516C205.862 178.125 205.703 177.651 205.594 177.094C205.484 176.536 205.43 175.885 205.43 175.141V173.406C205.43 172.474 205.513 171.693 205.68 171.062C205.852 170.432 206.094 169.927 206.406 169.547C206.719 169.161 207.094 168.885 207.531 168.719C207.974 168.552 208.469 168.469 209.016 168.469C209.458 168.469 209.865 168.523 210.234 168.633C210.609 168.737 210.943 168.906 211.234 169.141C211.526 169.37 211.773 169.677 211.977 170.062C212.185 170.443 212.344 170.909 212.453 171.461C212.562 172.013 212.617 172.661 212.617 173.406ZM211.164 175.375V173.164C211.164 172.654 211.133 172.206 211.07 171.82C211.013 171.43 210.927 171.096 210.812 170.82C210.698 170.544 210.552 170.32 210.375 170.148C210.203 169.977 210.003 169.852 209.773 169.773C209.549 169.69 209.297 169.648 209.016 169.648C208.672 169.648 208.367 169.714 208.102 169.844C207.836 169.969 207.612 170.169 207.43 170.445C207.253 170.721 207.117 171.083 207.023 171.531C206.93 171.979 206.883 172.523 206.883 173.164V175.375C206.883 175.885 206.911 176.336 206.969 176.727C207.031 177.117 207.122 177.456 207.242 177.742C207.362 178.023 207.508 178.255 207.68 178.438C207.852 178.62 208.049 178.755 208.273 178.844C208.503 178.927 208.755 178.969 209.031 178.969C209.385 178.969 209.695 178.901 209.961 178.766C210.227 178.63 210.448 178.419 210.625 178.133C210.807 177.841 210.943 177.469 211.031 177.016C211.12 176.557 211.164 176.01 211.164 175.375ZM221.93 178.812V180H214.484V178.961L218.211 174.812C218.669 174.302 219.023 173.87 219.273 173.516C219.529 173.156 219.706 172.836 219.805 172.555C219.909 172.268 219.961 171.977 219.961 171.68C219.961 171.305 219.883 170.966 219.727 170.664C219.576 170.357 219.352 170.112 219.055 169.93C218.758 169.747 218.398 169.656 217.977 169.656C217.471 169.656 217.049 169.755 216.711 169.953C216.378 170.146 216.128 170.417 215.961 170.766C215.794 171.115 215.711 171.516 215.711 171.969H214.266C214.266 171.328 214.406 170.742 214.688 170.211C214.969 169.68 215.385 169.258 215.938 168.945C216.49 168.628 217.169 168.469 217.977 168.469C218.695 168.469 219.31 168.596 219.82 168.852C220.331 169.102 220.721 169.456 220.992 169.914C221.268 170.367 221.406 170.898 221.406 171.508C221.406 171.841 221.349 172.18 221.234 172.523C221.125 172.862 220.971 173.201 220.773 173.539C220.581 173.878 220.354 174.211 220.094 174.539C219.839 174.867 219.565 175.19 219.273 175.508L216.227 178.812H221.93ZM225.586 173.602H226.617C227.122 173.602 227.539 173.518 227.867 173.352C228.201 173.18 228.448 172.948 228.609 172.656C228.776 172.359 228.859 172.026 228.859 171.656C228.859 171.219 228.786 170.852 228.641 170.555C228.495 170.258 228.276 170.034 227.984 169.883C227.693 169.732 227.323 169.656 226.875 169.656C226.469 169.656 226.109 169.737 225.797 169.898C225.49 170.055 225.247 170.279 225.07 170.57C224.898 170.862 224.812 171.206 224.812 171.602H223.367C223.367 171.023 223.513 170.497 223.805 170.023C224.096 169.549 224.505 169.172 225.031 168.891C225.562 168.609 226.177 168.469 226.875 168.469C227.562 168.469 228.164 168.591 228.68 168.836C229.195 169.076 229.596 169.435 229.883 169.914C230.169 170.388 230.312 170.979 230.312 171.688C230.312 171.974 230.245 172.281 230.109 172.609C229.979 172.932 229.773 173.234 229.492 173.516C229.216 173.797 228.857 174.029 228.414 174.211C227.971 174.388 227.44 174.477 226.82 174.477H225.586V173.602ZM225.586 174.789V173.922H226.82C227.544 173.922 228.143 174.008 228.617 174.18C229.091 174.352 229.464 174.581 229.734 174.867C230.01 175.154 230.203 175.469 230.312 175.812C230.427 176.151 230.484 176.49 230.484 176.828C230.484 177.359 230.393 177.831 230.211 178.242C230.034 178.654 229.781 179.003 229.453 179.289C229.13 179.576 228.75 179.792 228.312 179.938C227.875 180.083 227.398 180.156 226.883 180.156C226.388 180.156 225.922 180.086 225.484 179.945C225.052 179.805 224.669 179.602 224.336 179.336C224.003 179.065 223.742 178.734 223.555 178.344C223.367 177.948 223.273 177.497 223.273 176.992H224.719C224.719 177.388 224.805 177.734 224.977 178.031C225.154 178.328 225.404 178.56 225.727 178.727C226.055 178.888 226.44 178.969 226.883 178.969C227.326 178.969 227.706 178.893 228.023 178.742C228.346 178.586 228.594 178.352 228.766 178.039C228.943 177.727 229.031 177.333 229.031 176.859C229.031 176.385 228.932 175.997 228.734 175.695C228.536 175.388 228.255 175.161 227.891 175.016C227.531 174.865 227.107 174.789 226.617 174.789H225.586Z" fill="#05052C"/>
<path d="M29.1406 143.287H30.2656C30.207 143.826 30.0527 144.309 29.8027 144.734C29.5527 145.16 29.1992 145.498 28.7422 145.748C28.2852 145.994 27.7148 146.117 27.0312 146.117C26.5312 146.117 26.0762 146.023 25.666 145.836C25.2598 145.648 24.9102 145.383 24.6172 145.039C24.3242 144.691 24.0977 144.275 23.9375 143.791C23.7812 143.303 23.7031 142.76 23.7031 142.162V141.312C23.7031 140.715 23.7812 140.174 23.9375 139.689C24.0977 139.201 24.3262 138.783 24.623 138.436C24.9238 138.088 25.2852 137.82 25.707 137.633C26.1289 137.445 26.6035 137.352 27.1309 137.352C27.7754 137.352 28.3203 137.473 28.7656 137.715C29.2109 137.957 29.5566 138.293 29.8027 138.723C30.0527 139.148 30.207 139.643 30.2656 140.205H29.1406C29.0859 139.807 28.9844 139.465 28.8359 139.18C28.6875 138.891 28.4766 138.668 28.2031 138.512C27.9297 138.355 27.5723 138.277 27.1309 138.277C26.752 138.277 26.418 138.35 26.1289 138.494C25.8438 138.639 25.6035 138.844 25.4082 139.109C25.2168 139.375 25.0723 139.693 24.9746 140.064C24.877 140.436 24.8281 140.848 24.8281 141.301V142.162C24.8281 142.58 24.8711 142.973 24.957 143.34C25.0469 143.707 25.1816 144.029 25.3613 144.307C25.541 144.584 25.7695 144.803 26.0469 144.963C26.3242 145.119 26.6523 145.197 27.0312 145.197C27.5117 145.197 27.8945 145.121 28.1797 144.969C28.4648 144.816 28.6797 144.598 28.8242 144.312C28.9727 144.027 29.0781 143.686 29.1406 143.287ZM35.5215 144.535V139.66H36.6113V146H35.5742L35.5215 144.535ZM35.7266 143.199L36.1777 143.188C36.1777 143.609 36.1328 144 36.043 144.359C35.957 144.715 35.8164 145.023 35.6211 145.285C35.4258 145.547 35.1699 145.752 34.8535 145.9C34.5371 146.045 34.1523 146.117 33.6992 146.117C33.3906 146.117 33.1074 146.072 32.8496 145.982C32.5957 145.893 32.377 145.754 32.1934 145.566C32.0098 145.379 31.8672 145.135 31.7656 144.834C31.668 144.533 31.6191 144.172 31.6191 143.75V139.66H32.7031V143.762C32.7031 144.047 32.7344 144.283 32.7969 144.471C32.8633 144.654 32.9512 144.801 33.0605 144.91C33.1738 145.016 33.2988 145.09 33.4355 145.133C33.5762 145.176 33.7207 145.197 33.8691 145.197C34.3301 145.197 34.6953 145.109 34.9648 144.934C35.2344 144.754 35.4277 144.514 35.5449 144.213C35.666 143.908 35.7266 143.57 35.7266 143.199ZM41.9551 144.318C41.9551 144.162 41.9199 144.018 41.8496 143.885C41.7832 143.748 41.6445 143.625 41.4336 143.516C41.2266 143.402 40.9141 143.305 40.4961 143.223C40.1445 143.148 39.8262 143.061 39.541 142.959C39.2598 142.857 39.0195 142.734 38.8203 142.59C38.625 142.445 38.4746 142.275 38.3691 142.08C38.2637 141.885 38.2109 141.656 38.2109 141.395C38.2109 141.145 38.2656 140.908 38.375 140.686C38.4883 140.463 38.6465 140.266 38.8496 140.094C39.0566 139.922 39.3047 139.787 39.5938 139.689C39.8828 139.592 40.2051 139.543 40.5605 139.543C41.0684 139.543 41.502 139.633 41.8613 139.812C42.2207 139.992 42.4961 140.232 42.6875 140.533C42.8789 140.83 42.9746 141.16 42.9746 141.523H41.8906C41.8906 141.348 41.8379 141.178 41.7324 141.014C41.6309 140.846 41.4805 140.707 41.2812 140.598C41.0859 140.488 40.8457 140.434 40.5605 140.434C40.2598 140.434 40.0156 140.48 39.8281 140.574C39.6445 140.664 39.5098 140.779 39.4238 140.92C39.3418 141.061 39.3008 141.209 39.3008 141.365C39.3008 141.482 39.3203 141.588 39.3594 141.682C39.4023 141.771 39.4766 141.855 39.582 141.934C39.6875 142.008 39.8359 142.078 40.0273 142.145C40.2188 142.211 40.4629 142.277 40.7598 142.344C41.2793 142.461 41.707 142.602 42.043 142.766C42.3789 142.93 42.6289 143.131 42.793 143.369C42.957 143.607 43.0391 143.896 43.0391 144.236C43.0391 144.514 42.9805 144.768 42.8633 144.998C42.75 145.229 42.584 145.428 42.3652 145.596C42.1504 145.76 41.8926 145.889 41.5918 145.982C41.2949 146.072 40.9609 146.117 40.5898 146.117C40.0312 146.117 39.5586 146.018 39.1719 145.818C38.7852 145.619 38.4922 145.361 38.293 145.045C38.0938 144.729 37.9941 144.395 37.9941 144.043H39.084C39.0996 144.34 39.1855 144.576 39.3418 144.752C39.498 144.924 39.6895 145.047 39.916 145.121C40.1426 145.191 40.3672 145.227 40.5898 145.227C40.8867 145.227 41.1348 145.188 41.334 145.109C41.5371 145.031 41.6914 144.924 41.7969 144.787C41.9023 144.65 41.9551 144.494 41.9551 144.318ZM47.1172 139.66V140.492H43.6895V139.66H47.1172ZM44.8496 138.119H45.9336V144.43C45.9336 144.645 45.9668 144.807 46.0332 144.916C46.0996 145.025 46.1855 145.098 46.291 145.133C46.3965 145.168 46.5098 145.186 46.6309 145.186C46.7207 145.186 46.8145 145.178 46.9121 145.162C47.0137 145.143 47.0898 145.127 47.1406 145.115L47.1465 146C47.0605 146.027 46.9473 146.053 46.8066 146.076C46.6699 146.104 46.5039 146.117 46.3086 146.117C46.043 146.117 45.7988 146.064 45.5762 145.959C45.3535 145.854 45.1758 145.678 45.043 145.432C44.9141 145.182 44.8496 144.846 44.8496 144.424V138.119ZM47.9844 142.9V142.766C47.9844 142.309 48.0508 141.885 48.1836 141.494C48.3164 141.1 48.5078 140.758 48.7578 140.469C49.0078 140.176 49.3105 139.949 49.666 139.789C50.0215 139.625 50.4199 139.543 50.8613 139.543C51.3066 139.543 51.707 139.625 52.0625 139.789C52.4219 139.949 52.7266 140.176 52.9766 140.469C53.2305 140.758 53.4238 141.1 53.5566 141.494C53.6895 141.885 53.7559 142.309 53.7559 142.766V142.9C53.7559 143.357 53.6895 143.781 53.5566 144.172C53.4238 144.562 53.2305 144.904 52.9766 145.197C52.7266 145.486 52.4238 145.713 52.0684 145.877C51.7168 146.037 51.3184 146.117 50.873 146.117C50.4277 146.117 50.0273 146.037 49.6719 145.877C49.3164 145.713 49.0117 145.486 48.7578 145.197C48.5078 144.904 48.3164 144.562 48.1836 144.172C48.0508 143.781 47.9844 143.357 47.9844 142.9ZM49.0684 142.766V142.9C49.0684 143.217 49.1055 143.516 49.1797 143.797C49.2539 144.074 49.3652 144.32 49.5137 144.535C49.666 144.75 49.8555 144.92 50.082 145.045C50.3086 145.166 50.5723 145.227 50.873 145.227C51.1699 145.227 51.4297 145.166 51.6523 145.045C51.8789 144.92 52.0664 144.75 52.2148 144.535C52.3633 144.32 52.4746 144.074 52.5488 143.797C52.627 143.516 52.666 143.217 52.666 142.9V142.766C52.666 142.453 52.627 142.158 52.5488 141.881C52.4746 141.6 52.3613 141.352 52.209 141.137C52.0605 140.918 51.873 140.746 51.6465 140.621C51.4238 140.496 51.1621 140.434 50.8613 140.434C50.5645 140.434 50.3027 140.496 50.0762 140.621C49.8535 140.746 49.666 140.918 49.5137 141.137C49.3652 141.352 49.2539 141.6 49.1797 141.881C49.1055 142.158 49.0684 142.453 49.0684 142.766ZM56.1934 140.92V146H55.1035V139.66H56.1348L56.1934 140.92ZM55.9707 142.59L55.4668 142.572C55.4707 142.139 55.5273 141.738 55.6367 141.371C55.7461 141 55.9082 140.678 56.123 140.404C56.3379 140.131 56.6055 139.92 56.9258 139.771C57.2461 139.619 57.6172 139.543 58.0391 139.543C58.3359 139.543 58.6094 139.586 58.8594 139.672C59.1094 139.754 59.3262 139.885 59.5098 140.064C59.6934 140.244 59.8359 140.475 59.9375 140.756C60.0391 141.037 60.0898 141.377 60.0898 141.775V146H59.0059V141.828C59.0059 141.496 58.9492 141.23 58.8359 141.031C58.7266 140.832 58.5703 140.688 58.3672 140.598C58.1641 140.504 57.9258 140.457 57.6523 140.457C57.332 140.457 57.0645 140.514 56.8496 140.627C56.6348 140.74 56.4629 140.896 56.334 141.096C56.2051 141.295 56.1113 141.523 56.0527 141.781C55.998 142.035 55.9707 142.305 55.9707 142.59ZM60.0781 141.992L59.3516 142.215C59.3555 141.867 59.4121 141.533 59.5215 141.213C59.6348 140.893 59.7969 140.607 60.0078 140.357C60.2227 140.107 60.4863 139.91 60.7988 139.766C61.1113 139.617 61.4688 139.543 61.8711 139.543C62.2109 139.543 62.5117 139.588 62.7734 139.678C63.0391 139.768 63.2617 139.906 63.4414 140.094C63.625 140.277 63.7637 140.514 63.8574 140.803C63.9512 141.092 63.998 141.436 63.998 141.834V146H62.9082V141.822C62.9082 141.467 62.8516 141.191 62.7383 140.996C62.6289 140.797 62.4727 140.658 62.2695 140.58C62.0703 140.498 61.832 140.457 61.5547 140.457C61.3164 140.457 61.1055 140.498 60.9219 140.58C60.7383 140.662 60.584 140.775 60.459 140.92C60.334 141.061 60.2383 141.223 60.1719 141.406C60.1094 141.59 60.0781 141.785 60.0781 141.992ZM71.0879 146H69.3066L69.3184 145.08H71.0879C71.6973 145.08 72.2051 144.953 72.6113 144.699C73.0176 144.441 73.3223 144.082 73.5254 143.621C73.7324 143.156 73.8359 142.613 73.8359 141.992V141.471C73.8359 140.982 73.7773 140.549 73.6602 140.17C73.543 139.787 73.3711 139.465 73.1445 139.203C72.918 138.938 72.6406 138.736 72.3125 138.6C71.9883 138.463 71.6152 138.395 71.1934 138.395H69.2715V137.469H71.1934C71.752 137.469 72.2617 137.562 72.7227 137.75C73.1836 137.934 73.5801 138.201 73.9121 138.553C74.248 138.9 74.5059 139.322 74.6855 139.818C74.8652 140.311 74.9551 140.865 74.9551 141.482V141.992C74.9551 142.609 74.8652 143.166 74.6855 143.662C74.5059 144.154 74.2461 144.574 73.9062 144.922C73.5703 145.27 73.1641 145.537 72.6875 145.725C72.2148 145.908 71.6816 146 71.0879 146ZM69.9102 137.469V146H68.7793V137.469H69.9102ZM80.2285 144.916V141.652C80.2285 141.402 80.1777 141.186 80.0762 141.002C79.9785 140.814 79.8301 140.67 79.6309 140.568C79.4316 140.467 79.1855 140.416 78.8926 140.416C78.6191 140.416 78.3789 140.463 78.1719 140.557C77.9688 140.65 77.8086 140.773 77.6914 140.926C77.5781 141.078 77.5215 141.242 77.5215 141.418H76.4375C76.4375 141.191 76.4961 140.967 76.6133 140.744C76.7305 140.521 76.8984 140.32 77.1172 140.141C77.3398 139.957 77.6055 139.812 77.9141 139.707C78.2266 139.598 78.5742 139.543 78.957 139.543C79.418 139.543 79.8242 139.621 80.1758 139.777C80.5312 139.934 80.8086 140.17 81.0078 140.486C81.2109 140.799 81.3125 141.191 81.3125 141.664V144.617C81.3125 144.828 81.3301 145.053 81.3652 145.291C81.4043 145.529 81.4609 145.734 81.5352 145.906V146H80.4043C80.3496 145.875 80.3066 145.709 80.2754 145.502C80.2441 145.291 80.2285 145.096 80.2285 144.916ZM80.416 142.156L80.4277 142.918H79.332C79.0234 142.918 78.748 142.943 78.5059 142.994C78.2637 143.041 78.0605 143.113 77.8965 143.211C77.7324 143.309 77.6074 143.432 77.5215 143.58C77.4355 143.725 77.3926 143.895 77.3926 144.09C77.3926 144.289 77.4375 144.471 77.5273 144.635C77.6172 144.799 77.752 144.93 77.9316 145.027C78.1152 145.121 78.3398 145.168 78.6055 145.168C78.9375 145.168 79.2305 145.098 79.4844 144.957C79.7383 144.816 79.9395 144.645 80.0879 144.441C80.2402 144.238 80.3223 144.041 80.334 143.85L80.7969 144.371C80.7695 144.535 80.6953 144.717 80.5742 144.916C80.4531 145.115 80.291 145.307 80.0879 145.49C79.8887 145.67 79.6504 145.82 79.373 145.941C79.0996 146.059 78.791 146.117 78.4473 146.117C78.0176 146.117 77.6406 146.033 77.3164 145.865C76.9961 145.697 76.7461 145.473 76.5664 145.191C76.3906 144.906 76.3027 144.588 76.3027 144.236C76.3027 143.896 76.3691 143.598 76.502 143.34C76.6348 143.078 76.8262 142.861 77.0762 142.689C77.3262 142.514 77.627 142.381 77.9785 142.291C78.3301 142.201 78.7227 142.156 79.1562 142.156H80.416ZM85.6719 139.66V140.492H82.2441V139.66H85.6719ZM83.4043 138.119H84.4883V144.43C84.4883 144.645 84.5215 144.807 84.5879 144.916C84.6543 145.025 84.7402 145.098 84.8457 145.133C84.9512 145.168 85.0645 145.186 85.1855 145.186C85.2754 145.186 85.3691 145.178 85.4668 145.162C85.5684 145.143 85.6445 145.127 85.6953 145.115L85.7012 146C85.6152 146.027 85.502 146.053 85.3613 146.076C85.2246 146.104 85.0586 146.117 84.8633 146.117C84.5977 146.117 84.3535 146.064 84.1309 145.959C83.9082 145.854 83.7305 145.678 83.5977 145.432C83.4688 145.182 83.4043 144.846 83.4043 144.424V138.119ZM89.5742 146.117C89.1328 146.117 88.7324 146.043 88.373 145.895C88.0176 145.742 87.7109 145.529 87.4531 145.256C87.1992 144.982 87.0039 144.658 86.8672 144.283C86.7305 143.908 86.6621 143.498 86.6621 143.053V142.807C86.6621 142.291 86.7383 141.832 86.8906 141.43C87.043 141.023 87.25 140.68 87.5117 140.398C87.7734 140.117 88.0703 139.904 88.4023 139.76C88.7344 139.615 89.0781 139.543 89.4336 139.543C89.8867 139.543 90.2773 139.621 90.6055 139.777C90.9375 139.934 91.209 140.152 91.4199 140.434C91.6309 140.711 91.7871 141.039 91.8887 141.418C91.9902 141.793 92.041 142.203 92.041 142.648V143.135H87.3066V142.25H90.957V142.168C90.9414 141.887 90.8828 141.613 90.7812 141.348C90.6836 141.082 90.5273 140.863 90.3125 140.691C90.0977 140.52 89.8047 140.434 89.4336 140.434C89.1875 140.434 88.9609 140.486 88.7539 140.592C88.5469 140.693 88.3691 140.846 88.2207 141.049C88.0723 141.252 87.957 141.5 87.875 141.793C87.793 142.086 87.752 142.424 87.752 142.807V143.053C87.752 143.354 87.793 143.637 87.875 143.902C87.9609 144.164 88.084 144.395 88.2441 144.594C88.4082 144.793 88.6055 144.949 88.8359 145.062C89.0703 145.176 89.3359 145.232 89.6328 145.232C90.0156 145.232 90.3398 145.154 90.6055 144.998C90.8711 144.842 91.1035 144.633 91.3027 144.371L91.959 144.893C91.8223 145.1 91.6484 145.297 91.4375 145.484C91.2266 145.672 90.9668 145.824 90.6582 145.941C90.3535 146.059 89.9922 146.117 89.5742 146.117Z" fill="#B5B5BC"/>
<defs>
<filter id="filter0_d_56_1872" x="230" y="284.873" width="76" height="58.6569" filterUnits="userSpaceOnUse" color-interpolation-filters="sRGB">
<feFlood flood-opacity="0" result="BackgroundImageFix"/>
<feColorMatrix in="SourceAlpha" type="matrix" values="0 0 0 0 0 0 0 0 0 0 0 0 0 0 0 0 0 0 127 0" result="hardAlpha"/>
<feOffset dy="2"/>
<feGaussianBlur stdDeviation="8"/>
<feColorMatrix type="matrix" values="0 0 0 0 0.293333 0 0 0 0 0.333211 0 0 0 0 0.431373 0 0 0 0.2 0"/>
<feBlend mode="normal" in2="BackgroundImageFix" result="effect1_dropShadow_56_1872"/>
<feBlend mode="normal" in="SourceGraphic" in2="effect1_dropShadow_56_1872" result="shape"/>
</filter>
<linearGradient id="paint0_linear_56_1872" x1="320.19" y1="455.181" x2="320.19" y2="329.873" gradientUnits="userSpaceOnUse">
<stop stop-color="white" stop-opacity="0.1"/>
<stop offset="1" stop-color="#33C1BD"/>
</linearGradient>
<linearGradient id="paint1_linear_56_1872" x1="57.2909" y1="252" x2="25" y2="252" gradientUnits="userSpaceOnUse">
<stop stop-color="white" stop-opacity="0.01"/>
<stop offset="1" stop-color="white"/>
</linearGradient>
<linearGradient id="paint2_linear_56_1872" x1="288.709" y1="252" x2="321" y2="252" gradientUnits="userSpaceOnUse">
<stop stop-color="white" stop-opacity="0.01"/>
<stop offset="1" stop-color="white"/>
</linearGradient>
</defs>
</svg>
