<svg width="40" height="40" viewBox="0 0 40 40" fill="none" xmlns="http://www.w3.org/2000/svg">
<circle opacity="0.1" cx="20" cy="20" r="20" fill="#3C72B8"/>
<path fill-rule="evenodd" clip-rule="evenodd" d="M11.8787 9.87868C12.4413 9.31607 13.2044 9 14 9H22.5C22.7652 9 23.0196 9.10536 23.2071 9.29289L28.7071 14.7929C28.8946 14.9804 29 15.2348 29 15.5V28C29 28.7957 28.6839 29.5587 28.1213 30.1213C27.5587 30.6839 26.7957 31 26 31H14C13.2043 31 12.4413 30.6839 11.8787 30.1213C11.3161 29.5587 11 28.7957 11 28V12C11 11.2044 11.3161 10.4413 11.8787 9.87868ZM14 11C13.7348 11 13.4804 11.1054 13.2929 11.2929C13.1054 11.4804 13 11.7348 13 12V28C13 28.2652 13.1054 28.5196 13.2929 28.7071C13.4804 28.8946 13.7348 29 14 29H26C26.2652 29 26.5196 28.8946 26.7071 28.7071C26.8946 28.5196 27 28.2652 27 28V15.9142L22.0858 11H14Z" fill="#05052C"/>
<path fill-rule="evenodd" clip-rule="evenodd" d="M22 9C22.5523 9 23 9.44772 23 10V15H28C28.5523 15 29 15.4477 29 16C29 16.5523 28.5523 17 28 17H22C21.4477 17 21 16.5523 21 16V10C21 9.44772 21.4477 9 22 9Z" fill="#05052C"/>
<path fill-rule="evenodd" clip-rule="evenodd" d="M15 21C15 20.4477 15.4477 20 16 20H24C24.5523 20 25 20.4477 25 21C25 21.5523 24.5523 22 24 22H16C15.4477 22 15 21.5523 15 21Z" fill="#C7376D"/>
<path fill-rule="evenodd" clip-rule="evenodd" d="M15 25C15 24.4477 15.4477 24 16 24H24C24.5523 24 25 24.4477 25 25C25 25.5523 24.5523 26 24 26H16C15.4477 26 15 25.5523 15 25Z" fill="#C7376D"/>
<path fill-rule="evenodd" clip-rule="evenodd" d="M15 17C15 16.4477 15.4477 16 16 16H18C18.5523 16 19 16.4477 19 17C19 17.5523 18.5523 18 18 18H16C15.4477 18 15 17.5523 15 17Z" fill="#C7376D"/>
</svg>
