<svg width="192" height="30" viewBox="0 0 192 30" fill="none" xmlns="http://www.w3.org/2000/svg">
<g clip-path="url(#clip0_4_4425)">
<path d="M191.707 7.44581C191.486 7.08437 191.193 6.79521 190.826 6.57834C190.459 6.36147 190.019 6.28918 189.579 6.28918C189.139 6.28918 188.772 6.36147 188.332 6.57834C187.965 6.79521 187.671 7.08437 187.451 7.44581C187.231 7.80726 187.158 8.24099 187.158 8.67473C187.158 9.10846 187.231 9.46991 187.451 9.83135C187.671 10.1928 187.965 10.482 188.332 10.6988C188.699 10.9157 189.139 10.988 189.579 10.988C190.019 10.988 190.386 10.9157 190.826 10.6988C191.193 10.482 191.486 10.1928 191.707 9.83135C191.927 9.46991 192 9.03617 192 8.60244C192 8.24099 191.927 7.87955 191.707 7.44581ZM191.413 9.68677C191.193 9.97593 190.973 10.2651 190.679 10.4097C190.386 10.6265 190.019 10.6988 189.652 10.6988C189.285 10.6988 188.919 10.6265 188.625 10.4097C188.332 10.1928 188.038 9.97593 187.818 9.68677C187.598 9.39762 187.525 9.03617 187.525 8.67473C187.525 8.31328 187.598 7.95184 187.818 7.66268C188.038 7.37352 188.258 7.08437 188.625 6.8675C188.919 6.65063 189.285 6.57834 189.652 6.57834C190.019 6.57834 190.386 6.65063 190.679 6.8675C190.973 7.08437 191.266 7.30123 191.413 7.66268C191.633 7.95184 191.707 8.31328 191.707 8.67473C191.707 9.03617 191.633 9.39762 191.413 9.68677Z" fill="white"/>
<path d="M190.753 9.61446V9.3253C190.753 9.10844 190.753 8.96386 190.679 8.89157C190.606 8.81928 190.533 8.74699 190.459 8.6747C190.606 8.60241 190.679 8.53012 190.753 8.45783C190.826 8.38555 190.826 8.24097 190.826 8.09639C190.826 7.95181 190.753 7.80723 190.679 7.66265C190.606 7.51808 190.533 7.44579 190.386 7.3735C190.239 7.30121 190.092 7.30121 189.799 7.30121H188.552V10.0482H188.992V8.89157H189.726C189.872 8.89157 190.019 8.89157 190.092 8.89157C190.166 8.89157 190.166 8.96386 190.239 9.03615C190.239 9.10844 190.313 9.18073 190.313 9.3253V9.68675C190.313 9.83133 190.313 9.97591 190.386 10.1205H190.899L190.826 10.0482C190.753 9.90362 190.753 9.75904 190.753 9.61446ZM190.166 8.45783C190.092 8.53012 189.946 8.53012 189.726 8.53012H189.065V7.73494H189.799C190.019 7.73494 190.166 7.73494 190.239 7.80723C190.313 7.87952 190.386 7.95181 190.386 8.09639C190.313 8.24097 190.239 8.38555 190.166 8.45783Z" fill="white"/>
<path d="M104.694 15.8313C103.814 15.3976 103.227 14.9638 102.933 14.6747C102.64 14.3132 102.493 14.0241 102.493 13.6626C102.493 13.2289 102.64 12.8674 103.006 12.5783C103.373 12.2891 103.74 12.1446 104.254 12.1446C104.987 12.1446 105.721 12.506 106.528 13.2289L107.482 12.2891C106.455 11.2771 105.354 10.7711 104.327 10.7711C103.447 10.7711 102.713 11.0602 102.126 11.6385C101.539 12.2168 101.246 12.8674 101.246 13.7349C101.246 14.3855 101.466 14.9638 101.833 15.4699C102.199 15.9759 102.86 16.4819 103.887 16.9879C104.841 17.4939 105.428 17.8554 105.721 18.1446C106.015 18.4337 106.161 18.7952 106.161 19.2289C106.161 19.7349 105.941 20.1686 105.574 20.5301C105.134 20.8915 104.694 21.1084 104.107 21.1084C103.3 21.1084 102.493 20.6747 101.759 19.8795L100.879 20.8915C101.246 21.3976 101.759 21.759 102.346 22.0482C102.933 22.3373 103.593 22.4819 104.18 22.4819C105.134 22.4819 105.941 22.1927 106.601 21.5421C107.262 20.8915 107.555 20.1686 107.555 19.2289C107.555 18.5783 107.335 18 106.968 17.4939C106.528 16.9156 105.794 16.3373 104.694 15.8313Z" fill="white"/>
<path d="M115.332 10.6988C113.571 10.6988 112.177 11.3494 111.003 12.5783C109.976 13.7349 109.463 15.0361 109.463 16.5542C109.463 18.1446 109.976 19.4458 111.077 20.6024C112.177 21.759 113.571 22.3373 115.332 22.3373C117.019 22.3373 118.487 21.759 119.587 20.6024C120.688 19.4458 121.201 18.0723 121.201 16.5542C121.201 15.0361 120.688 13.6626 119.661 12.506C118.56 11.3494 117.093 10.6988 115.332 10.6988ZM119.147 18.8675C118.78 19.5904 118.193 20.0964 117.533 20.4578C116.873 20.8193 116.139 21.0361 115.332 21.0361C114.525 21.0361 113.791 20.8193 113.131 20.4578C112.471 20.0964 111.957 19.5181 111.517 18.8675C111.15 18.1446 110.93 17.4217 110.93 16.6265C110.93 15.3976 111.37 14.3132 112.251 13.4458C113.131 12.5783 114.158 12.1446 115.332 12.1446C116.506 12.1446 117.533 12.5783 118.413 13.4458C119.294 14.3132 119.734 15.3976 119.734 16.6265C119.734 17.4217 119.587 18.2169 119.147 18.8675Z" fill="white"/>
<path d="M125.163 6.7229H123.696V22.1205H125.163V6.7229Z" fill="white"/>
<path d="M136.388 16.1928C136.388 17.5663 136.315 18.506 136.168 18.9398C135.948 19.5904 135.581 20.0964 134.994 20.4579C134.407 20.8193 133.747 21.0362 132.94 21.0362C132.133 21.0362 131.399 20.8193 130.812 20.4579C130.225 20.0964 129.859 19.5181 129.639 18.8675C129.492 18.3615 129.418 17.494 129.418 16.2651V11.0603H127.951V16.4097C127.951 18 128.098 19.1567 128.465 19.9518C128.831 20.747 129.345 21.3253 130.079 21.7591C130.812 22.1928 131.766 22.4097 132.867 22.4097C133.967 22.4097 134.848 22.1928 135.581 21.7591C136.315 21.3253 136.828 20.747 137.195 19.9518C137.562 19.1567 137.709 18 137.709 16.482V10.988H136.241V16.1928H136.388Z" fill="white"/>
<path d="M143.798 6.86749H142.331V10.988H140.35V12.2892H142.331V22.1205H143.798V12.2892H146.146V10.988H143.798V6.86749Z" fill="white"/>
<path d="M148.787 6.43372C148.494 6.43372 148.2 6.57829 147.98 6.79516C147.76 7.01203 147.613 7.30119 147.613 7.66263C147.613 7.95179 147.76 8.24094 147.98 8.45781C148.2 8.67468 148.494 8.81926 148.787 8.81926C149.081 8.81926 149.374 8.67468 149.668 8.45781C149.888 8.24094 150.034 7.95179 150.034 7.66263C150.034 7.30119 149.888 7.08432 149.668 6.79516C149.374 6.57829 149.154 6.43372 148.787 6.43372Z" fill="white"/>
<path d="M149.521 10.988H148.053V22.1205H149.521V10.988Z" fill="white"/>
<path d="M157.885 10.6988C156.124 10.6988 154.73 11.3494 153.556 12.5783C152.529 13.7349 152.015 15.0361 152.015 16.5542C152.015 18.1446 152.529 19.4458 153.629 20.6024C154.73 21.759 156.124 22.3373 157.885 22.3373C159.572 22.3373 161.039 21.759 162.14 20.6024C163.24 19.4458 163.754 18.0723 163.754 16.5542C163.754 15.0361 163.24 13.6626 162.213 12.506C161.039 11.3494 159.645 10.6988 157.885 10.6988ZM161.7 18.8675C161.333 19.5904 160.746 20.0964 160.086 20.4578C159.425 20.8193 158.692 21.0361 157.885 21.0361C157.078 21.0361 156.344 20.8193 155.684 20.4578C155.023 20.0964 154.51 19.5181 154.07 18.8675C153.703 18.1446 153.483 17.4217 153.483 16.6265C153.483 15.3976 153.923 14.3132 154.803 13.4458C155.684 12.5783 156.711 12.1446 157.885 12.1446C159.058 12.1446 160.086 12.5783 160.966 13.4458C161.846 14.3132 162.287 15.3976 162.287 16.6265C162.287 17.4217 162.066 18.2169 161.7 18.8675Z" fill="white"/>
<path d="M182.316 15.8313C181.435 15.3976 180.848 14.9638 180.555 14.6747C180.261 14.3132 180.115 14.0241 180.115 13.6626C180.115 13.2289 180.261 12.8674 180.628 12.5783C180.995 12.2891 181.362 12.1446 181.875 12.1446C182.609 12.1446 183.343 12.506 184.15 13.2289L185.104 12.2891C184.076 11.2771 182.976 10.7711 181.949 10.7711C181.068 10.7711 180.335 11.0602 179.748 11.6385C179.161 12.2168 178.867 12.8674 178.867 13.7349C178.867 14.3855 179.087 14.9638 179.454 15.4699C179.821 15.9759 180.481 16.4819 181.509 16.9879C182.462 17.4939 183.049 17.8554 183.343 18.1446C183.636 18.4337 183.783 18.7952 183.783 19.2289C183.783 19.7349 183.563 20.1686 183.196 20.5301C182.756 20.8915 182.316 21.1084 181.729 21.1084C180.922 21.1084 180.115 20.6747 179.381 19.8795L178.501 20.8915C178.867 21.3976 179.381 21.759 179.968 22.0482C180.555 22.3373 181.215 22.4819 181.802 22.4819C182.756 22.4819 183.563 22.1927 184.223 21.5421C184.883 20.8915 185.177 20.1686 185.177 19.2289C185.177 18.5783 184.957 18 184.59 17.4939C184.15 16.9156 183.416 16.3373 182.316 15.8313Z" fill="white"/>
<path d="M174.099 11.7108C173.365 11.2771 172.411 11.0602 171.311 11.0602C170.21 11.0602 169.33 11.2771 168.596 11.7108C167.862 12.1446 167.349 12.7229 166.982 13.5181C166.615 14.3133 166.468 15.4699 166.468 16.988V22.4096H167.936V17.2048C167.936 15.8313 168.009 14.8916 168.156 14.4578C168.376 13.8072 168.743 13.3012 169.33 12.9398C169.917 12.5783 170.577 12.3614 171.384 12.3614C172.191 12.3614 172.925 12.5783 173.512 12.9398C174.099 13.3012 174.465 13.8795 174.685 14.5301C174.832 15.0361 174.906 15.9036 174.906 17.1325V22.4096H176.373V17.0602C176.373 15.4699 176.226 14.3133 175.859 13.5181C175.419 12.7229 174.832 12.1446 174.099 11.7108Z" fill="white"/>
<path d="M30.4471 0H25.9717V9.9759C24.1376 8.6747 21.9366 7.87952 19.5155 7.87952C13.4261 7.87952 8.5105 12.7229 8.5105 18.7229H12.9859C12.9859 15.1807 15.9205 12.2892 19.5155 12.2892C22.8903 12.2892 25.6782 14.8193 25.9717 18V18.6506H26.0451H30.5204H30.5938C30.5938 18.4337 30.5938 18.1446 30.5204 17.9277V0H30.4471Z" fill="white"/>
<path d="M90.9744 0H86.499V30H90.9744V0Z" fill="white"/>
<path d="M4.47535 0H0V30H4.47535V0Z" fill="white"/>
<path d="M19.5155 19.1566C13.4261 19.1566 8.5105 24 8.5105 30H12.9859C12.9859 26.4578 15.9205 23.5663 19.5155 23.5663C23.1104 23.5663 26.0451 26.4578 26.0451 30H30.5204C30.5204 24 25.6049 19.1566 19.5155 19.1566Z" fill="white"/>
<path d="M77.2549 10.4819C75.3474 8.89159 72.8529 7.95183 70.1383 7.95183C64.0489 7.95183 59.1334 12.7952 59.1334 18.7952C59.1334 24.7952 64.0489 29.6386 70.1383 29.6386C72.8529 29.6386 75.274 28.6988 77.2549 27.1085V30.0723H81.7302V7.80725H77.2549V10.4819ZM70.2117 25.1566C66.6167 25.1566 63.6821 22.2651 63.6821 18.7229C63.6821 15.1807 66.6167 12.2892 70.2117 12.2892C73.8067 12.2892 76.7413 15.1807 76.7413 18.7229C76.7413 22.2651 73.8067 25.1566 70.2117 25.1566Z" fill="white"/>
<path d="M55.6118 16.3373C55.5384 16.0482 55.4651 15.759 55.3917 15.4699V15.3976C54.8781 13.8072 54.0711 12.3614 52.8972 11.2048C52.8239 11.1325 52.8239 11.1325 52.7505 11.0602C50.7696 9.03613 47.9817 7.73492 44.9003 7.73492C38.8109 7.73492 33.8953 12.5783 33.8953 18.5783C33.8953 21.1807 34.8491 23.6385 36.4632 25.5181C36.7566 25.8795 37.0501 26.1687 37.3435 26.5301C39.3978 28.5542 42.039 29.5662 45.2671 29.5662C47.3948 29.5662 49.1555 29.2048 50.6962 28.4819C52.2369 27.759 53.5575 26.6024 54.5847 25.0843L50.1827 23.0602C48.7887 24.4337 47.1013 25.0843 45.1938 25.0843C43.5797 25.0843 42.2591 24.6506 41.1586 23.7831C40.1315 22.9156 39.4712 21.759 39.2511 20.3132H55.9786V19.3735C55.9786 18.3614 55.9053 17.494 55.6852 16.6265C55.6852 16.4819 55.6852 16.4096 55.6118 16.3373ZM39.4712 16.3373C40.0581 15.1084 40.7184 14.1687 41.3787 13.6626C42.4792 12.8675 43.7264 12.4337 45.1938 12.4337C46.5144 12.4337 47.6882 12.7952 48.7153 13.5181C49.7425 14.2409 50.4028 15.1807 50.7696 16.265H39.4712V16.3373Z" fill="white"/>
</g>
<defs>
<clipPath id="clip0_4_4425">
<rect width="192" height="30" fill="white"/>
</clipPath>
</defs>
</svg>
