<svg width="22" height="22" viewBox="0 0 22 22" fill="none" xmlns="http://www.w3.org/2000/svg">
<path d="M14.6807 8.6943C14.7127 8.72622 14.738 8.76413 14.7553 8.80586C14.7726 8.84759 14.7815 8.89233 14.7815 8.9375C14.7815 8.98267 14.7726 9.02741 14.7553 9.06914C14.738 9.11087 14.7127 9.14878 14.6807 9.1807L9.86821 13.9932C9.83628 14.0252 9.79837 14.0505 9.75664 14.0678C9.71491 14.0851 9.67018 14.094 9.625 14.094C9.57983 14.094 9.5351 14.0851 9.49337 14.0678C9.45164 14.0505 9.41373 14.0252 9.3818 13.9932L7.3193 11.9307C7.2548 11.8662 7.21856 11.7787 7.21856 11.6875C7.21856 11.5963 7.2548 11.5088 7.3193 11.4443C7.3838 11.3798 7.47128 11.3436 7.5625 11.3436C7.65372 11.3436 7.74121 11.3798 7.80571 11.4443L9.625 13.2636L14.1943 8.6943C14.2262 8.66234 14.2641 8.63698 14.3059 8.61968C14.3476 8.60238 14.3923 8.59348 14.4375 8.59348C14.4827 8.59348 14.5274 8.60238 14.5691 8.61968C14.6109 8.63698 14.6488 8.66234 14.6807 8.6943ZM19.5938 11C19.5938 12.6997 19.0897 14.3612 18.1454 15.7744C17.2012 17.1877 15.859 18.2891 14.2887 18.9396C12.7184 19.59 10.9905 19.7602 9.32345 19.4286C7.65642 19.097 6.12516 18.2786 4.92331 17.0767C3.72145 15.8748 2.90297 14.3436 2.57138 12.6766C2.23979 11.0095 2.40997 9.28162 3.06041 7.71131C3.71085 6.14101 4.81234 4.79885 6.22557 3.85456C7.63881 2.91026 9.30032 2.40625 11 2.40625C13.2784 2.40875 15.4628 3.31497 17.0739 4.92606C18.685 6.53716 19.5913 8.72156 19.5938 11ZM18.9063 11C18.9063 9.43629 18.4426 7.9077 17.5738 6.60752C16.7051 5.30735 15.4703 4.29398 14.0256 3.69558C12.5809 3.09717 10.9912 2.9406 9.45757 3.24567C7.92391 3.55073 6.51515 4.30373 5.40944 5.40944C4.30373 6.51515 3.55073 7.9239 3.24567 9.45757C2.94061 10.9912 3.09718 12.5809 3.69558 14.0256C4.29399 15.4703 5.30735 16.7051 6.60753 17.5738C7.9077 18.4426 9.4363 18.9062 11 18.9062C13.0962 18.904 15.1058 18.0703 16.5881 16.588C18.0703 15.1058 18.904 13.0962 18.9063 11Z" fill="#17A300"/>
</svg>
