<svg width="22" height="22" viewBox="0 0 22 22" fill="none" xmlns="http://www.w3.org/2000/svg">
<path d="M11 4.6665C11.7072 4.6665 12.3855 4.94746 12.8856 5.44755C13.3857 5.94765 13.6666 6.62593 13.6666 7.33317C13.6666 8.04041 13.3857 8.71869 12.8856 9.21879C12.3855 9.71889 11.7072 9.99984 11 9.99984C10.2927 9.99984 9.61444 9.71889 9.11434 9.21879C8.61424 8.71869 8.33329 8.04041 8.33329 7.33317C8.33329 6.62593 8.61424 5.94765 9.11434 5.44755C9.61444 4.94746 10.2927 4.6665 11 4.6665ZM11 11.3332C13.9466 11.3332 16.3333 12.5265 16.3333 13.9998V15.3332H5.66663V13.9998C5.66663 12.5265 8.05329 11.3332 11 11.3332Z" fill="#E2E2E2"/>
<circle cx="11" cy="11" r="10.5" stroke="#E2E2E2" stroke-dasharray="2 2"/>
</svg>
